<?xml version="1.0" encoding="iso-8859-1"?>
<!-- Generator: Adobe Illustrator 18.0.0, SVG Export Plug-In . SVG Version: 6.00 Build 0)  -->
<!DOCTYPE svg PUBLIC "-//W3C//DTD SVG 1.1//EN" "http://www.w3.org/Graphics/SVG/1.1/DTD/svg11.dtd">
<svg version="1.1" id="Capa_1" xmlns="http://www.w3.org/2000/svg" xmlns:xlink="http://www.w3.org/1999/xlink" x="0px" y="0px"
	 viewBox="0 0 252.129 252.129" style="enable-background:new 0 0 252.129 252.129;" xml:space="preserve">
<g>
	<g>
		<path d="M42.666,173.099h166.797c4.142,0,7.5-3.357,7.5-7.5v-32.1c0-4.143-3.358-7.5-7.5-7.5H42.666c-4.143,0-7.5,3.357-7.5,7.5
			v32.1C35.166,169.741,38.523,173.099,42.666,173.099z M50.166,140.999h151.797v17.1H50.166V140.999z"/>
		<path d="M244.629,93.094c4.142,0,7.5-3.357,7.5-7.5V32.922c0-13.088-10.647-23.735-23.734-23.735H23.734
			C10.646,9.187,0,19.834,0,32.922v52.672c0,4.143,3.358,7.5,7.5,7.5h5.381v7.191l-8.264,3.44C1.821,104.89,0,107.621,0,110.649
			v105.962c0,4.143,3.358,7.5,7.5,7.5h4.224l18.364,16.856c1.384,1.27,3.193,1.975,5.071,1.975h181.81
			c1.879,0,3.688-0.705,5.072-1.975l18.363-16.856h4.225c4.142,0,7.5-3.357,7.5-7.5V110.649c0-3.028-1.821-5.76-4.617-6.924
			l-8.265-3.441v-7.19H244.629z M23.734,24.187h204.66c4.816,0,8.734,3.919,8.734,8.735v45.172H15V32.922
			C15,28.105,18.918,24.187,23.734,24.187z M230.248,112.786l6.881,2.864v93.461H15v-93.46l6.881-2.865H230.248z M214.049,227.942
			H38.08l-4.174-3.831h184.315L214.049,227.942z M224.247,97.786H27.881v-4.692h196.366V97.786z"/>
	</g>
</g>
<g>
</g>
<g>
</g>
<g>
</g>
<g>
</g>
<g>
</g>
<g>
</g>
<g>
</g>
<g>
</g>
<g>
</g>
<g>
</g>
<g>
</g>
<g>
</g>
<g>
</g>
<g>
</g>
<g>
</g>
</svg>
