<?xml version="1.0" encoding="iso-8859-1"?>
<!-- Generator: Adobe Illustrator 18.0.0, SVG Export Plug-In . SVG Version: 6.00 Build 0)  -->
<!DOCTYPE svg PUBLIC "-//W3C//DTD SVG 1.1//EN" "http://www.w3.org/Graphics/SVG/1.1/DTD/svg11.dtd">
<svg version="1.1" id="Capa_1" xmlns="http://www.w3.org/2000/svg" xmlns:xlink="http://www.w3.org/1999/xlink" x="0px" y="0px"
	 viewBox="0 0 369.632 369.632" style="enable-background:new 0 0 369.632 369.632;" xml:space="preserve">
<g>
	<g>
		<path d="M333.227,173.842c0-31.769-12.897-60.927-34.307-83.625c-2.814-24.407-15.656-46.927-36.357-63.642
			C241.338,9.438,213.727,0,184.814,0c-28.91,0-56.521,9.438-77.745,26.576C86.368,43.291,73.526,65.811,70.711,90.217
			c-21.41,22.698-34.306,51.857-34.306,83.625c0,39.945,20.171,77.027,55.392,102.028c8.881,53.446,47.214,93.762,93.018,93.762
			c45.805,0,84.137-40.317,93.018-93.763C313.057,250.867,333.227,213.786,333.227,173.842z M184.814,15
			c43.27,0,80.82,24.135,94.338,57.839c-19.027-13.856-50.039-29.927-94.336-29.927c-35.797,0-68.675,11.239-94.337,29.927
			C103.996,39.135,141.546,15,184.814,15z M51.406,173.842c0-63.924,59.848-115.93,133.411-115.93
			c7.975,0,15.789,0.613,23.383,1.785c30.734,13.318,49.793,37.854,49.793,64.223c0,13.086-4.629,25.764-13.432,37.068
			c-16.33-16.391-37.123-26.23-59.744-26.23c-52.359,0-94.957,52.682-94.957,117.438c0,1.033,0.011,2.063,0.033,3.089
			C65.268,233.672,51.406,204.678,51.406,173.842z M184.816,354.632c-38.414,0-70.585-34.888-78.23-81.229
			c7.527,7.793,18.071,12.653,29.735,12.653c22.809,0,41.366-18.556,41.366-41.364s-18.557-41.364-41.366-41.364
			c-9.366,0-18.012,3.134-24.953,8.401c12.271-36.417,40.572-61.971,73.448-61.971c44.025,0,69,48.769,73.447,61.972
			c-6.941-5.269-15.588-8.402-24.955-8.402c-22.807,0-41.363,18.556-41.363,41.364s18.557,41.364,41.363,41.364
			c11.666,0,22.209-4.861,29.736-12.654C255.4,319.744,223.23,354.632,184.816,354.632z M109.958,244.692
			c0-14.537,11.827-26.364,26.364-26.364c14.538,0,26.365,11.827,26.365,26.364c0,14.537-11.827,26.364-26.365,26.364
			C121.785,271.057,109.958,259.229,109.958,244.692z M259.674,244.692c0,14.537-11.826,26.364-26.365,26.364
			c-14.537,0-26.363-11.827-26.363-26.364c0-14.537,11.826-26.364,26.363-26.364C247.848,218.328,259.674,230.155,259.674,244.692z
			 M279.74,255.285c0.022-1.026,0.033-2.056,0.033-3.088c0-30.722-9.594-58.721-25.262-79.672
			c11.949-14.41,18.48-31.447,18.48-48.605c0-17.796-6.781-34.789-18.883-49.108c38.416,20.373,64.117,57.142,64.117,99.031
			C318.227,204.677,304.365,233.671,279.74,255.285z"/>
		<path d="M211.91,299.84c-3.607-2.039-8.182-0.764-10.217,2.843c-3.438,6.087-9.904,9.868-16.877,9.868
			c-6.972,0-13.439-3.781-16.877-9.869c-2.037-3.605-6.61-4.879-10.218-2.842c-3.606,2.037-4.879,6.612-2.842,10.219
			c6.094,10.789,17.565,17.492,29.937,17.492c12.373,0,23.846-6.703,29.937-17.492C216.791,306.452,215.518,301.877,211.91,299.84z"
			/>
		<path d="M150.003,244.692c0-4.142-3.358-7.5-7.5-7.5h-12.363c-4.142,0-7.5,3.358-7.5,7.5c0,4.142,3.358,7.5,7.5,7.5h12.363
			C146.645,252.192,150.003,248.834,150.003,244.692z"/>
		<path d="M219.629,244.692c0,4.142,3.357,7.5,7.5,7.5h12.361c4.143,0,7.5-3.358,7.5-7.5c0-4.142-3.357-7.5-7.5-7.5h-12.361
			C222.986,237.192,219.629,240.55,219.629,244.692z"/>
	</g>
</g>
<g>
</g>
<g>
</g>
<g>
</g>
<g>
</g>
<g>
</g>
<g>
</g>
<g>
</g>
<g>
</g>
<g>
</g>
<g>
</g>
<g>
</g>
<g>
</g>
<g>
</g>
<g>
</g>
<g>
</g>
</svg>
