<?xml version="1.0" encoding="iso-8859-1"?>
<!-- Generator: Adobe Illustrator 18.0.0, SVG Export Plug-In . SVG Version: 6.00 Build 0)  -->
<!DOCTYPE svg PUBLIC "-//W3C//DTD SVG 1.1//EN" "http://www.w3.org/Graphics/SVG/1.1/DTD/svg11.dtd">
<svg version="1.1" id="Capa_1" xmlns="http://www.w3.org/2000/svg" xmlns:xlink="http://www.w3.org/1999/xlink" x="0px" y="0px"
	 viewBox="0 0 356.686 356.686" style="enable-background:new 0 0 356.686 356.686;" xml:space="preserve">
<g>
	<g>
		<path d="M251.61,208.015c0-25.702-4.448-50.344-12.863-71.26c-8.48-21.078-20.373-36.916-34.393-45.8
			c-1.201-0.761-2.593-1.165-4.014-1.165h-0.768V78.896h0.792c1.676,0,3.305-0.562,4.624-1.596
			c10.547-8.26,16.596-20.674,16.596-34.058C221.585,19.399,202.186,0,178.343,0c-23.844,0-43.242,19.399-43.242,43.242
			c0,13.382,6.047,25.795,16.592,34.056c1.32,1.034,2.948,1.597,4.626,1.597h0.795v10.894h-0.766h0
			c-1.421,0-2.814,0.404-4.015,1.165c-14.02,8.884-25.913,24.722-34.394,45.8c-8.415,20.917-12.863,45.559-12.863,71.262
			c0,36.876,9.884,98.367,28.515,125.636c-0.978,2.104-1.499,4.423-1.499,6.827c0,8.938,7.271,16.208,16.209,16.208h60.085
			c8.938,0,16.208-7.271,16.208-16.208c0-2.404-0.521-4.723-1.499-6.827C241.727,306.384,251.61,244.892,251.61,208.015z
			 M219.112,129.914h-33.269v-25.125l12.232,0.001C206.134,110.42,213.253,119.08,219.112,129.914z M172.113,89.783V78.895
			l12.461,0.001v10.888H172.113z M150.101,43.242C150.101,27.669,162.77,15,178.343,15s28.242,12.669,28.242,28.242
			c0,7.918-3.243,15.318-8.977,20.653l-38.533-0.001C153.343,58.559,150.101,51.159,150.101,43.242z M158.611,104.788l12.231,0.001
			v25.125h-33.27C143.433,119.079,150.551,110.418,158.611,104.788z M206.234,334.312c0.2,2.059,1.242,3.946,2.879,5.211
			c0.179,0.139,0.48,0.447,0.48,0.955c0,0.666-0.542,1.208-1.208,1.208H148.3c-0.667,0-1.209-0.542-1.209-1.208
			c0-0.508,0.301-0.815,0.48-0.954c1.638-1.266,2.68-3.151,2.88-5.211c0.2-2.06-0.461-4.111-1.825-5.668
			c-16.341-18.645-28.552-79.064-28.552-120.63c0-23.134,3.896-45.009,10.707-63.101h95.12
			c6.811,18.092,10.708,39.967,10.708,63.101c0,41.565-12.21,101.985-28.552,120.63
			C206.694,330.201,206.034,332.252,206.234,334.312z"/>
		<g>
			<path d="M212.452,242.617h-68.219c-4.142,0-7.5-3.357-7.5-7.5v-68.219c0-4.143,3.358-7.5,7.5-7.5h68.219
				c4.142,0,7.5,3.357,7.5,7.5v68.219C219.952,239.26,216.594,242.617,212.452,242.617z M151.733,227.617h53.219v-53.219h-53.219
				V227.617z"/>
		</g>
	</g>
</g>
<g>
</g>
<g>
</g>
<g>
</g>
<g>
</g>
<g>
</g>
<g>
</g>
<g>
</g>
<g>
</g>
<g>
</g>
<g>
</g>
<g>
</g>
<g>
</g>
<g>
</g>
<g>
</g>
<g>
</g>
</svg>
