<?xml version="1.0" encoding="iso-8859-1"?>
<!-- Generator: Adobe Illustrator 18.0.0, SVG Export Plug-In . SVG Version: 6.00 Build 0)  -->
<!DOCTYPE svg PUBLIC "-//W3C//DTD SVG 1.1//EN" "http://www.w3.org/Graphics/SVG/1.1/DTD/svg11.dtd">
<svg version="1.1" id="Capa_1" xmlns="http://www.w3.org/2000/svg" xmlns:xlink="http://www.w3.org/1999/xlink" x="0px" y="0px"
	 viewBox="0 0 385.539 385.539" style="enable-background:new 0 0 385.539 385.539;" xml:space="preserve">
<g>
	<path d="M248.345,15.922c-13.976-9.786-33.161-15.44-54.021-15.92c-0.058-0.001-3.05-0.001-3.107,0
		c-20.86,0.48-40.046,6.134-54.021,15.92c-15.306,10.717-23.735,25.936-23.735,42.853c0,26.366,14.277,51.562,22.788,64.233
		c5.338,7.948,11.405,15.505,17.083,21.281c2.641,2.686,4.857,4.655,6.751,6.103l-2.62,208.065
		c0,15.187,15.509,27.083,35.308,27.083s35.308-11.896,35.307-27.177l-2.619-207.971c1.893-1.448,4.11-3.417,6.751-6.103
		c5.679-5.775,11.746-13.333,17.084-21.281c8.51-12.672,22.788-37.867,22.788-64.233C272.08,41.858,263.65,26.638,248.345,15.922z
		 M210.505,154.254l0.196,15.535h-35.862l0.196-15.535H210.505z M192.77,370.539c-11.968,0-20.308-6.368-20.308-11.988
		l2.188-173.762h36.24l2.188,173.667C213.077,364.172,204.737,370.539,192.77,370.539z M215.747,138.962l10.994-25.633
		c1.633-3.807-0.129-8.216-3.937-9.849c-3.805-1.632-8.215,0.129-9.849,3.937c0,0-13.585,31.708-13.632,31.837h-13.107
		c-0.047-0.128-13.632-31.837-13.632-31.837c-1.633-3.807-6.044-5.569-9.849-3.937c-3.807,1.632-5.569,6.042-3.937,9.849
		l10.994,25.633c-8.452-5.819-41.333-43.577-41.333-80.188c0-15.229,9.429-25.027,17.338-30.566
		c11.559-8.094,27.778-12.784,45.678-13.209h2.587c17.9,0.426,34.119,5.116,45.678,13.209c7.91,5.539,17.338,15.337,17.338,30.566
		C257.08,95.385,224.199,133.143,215.747,138.962z"/>
</g>
<g>
</g>
<g>
</g>
<g>
</g>
<g>
</g>
<g>
</g>
<g>
</g>
<g>
</g>
<g>
</g>
<g>
</g>
<g>
</g>
<g>
</g>
<g>
</g>
<g>
</g>
<g>
</g>
<g>
</g>
</svg>
