<?xml version="1.0" encoding="iso-8859-1"?>
<!-- Generator: Adobe Illustrator 18.0.0, SVG Export Plug-In . SVG Version: 6.00 Build 0)  -->
<!DOCTYPE svg PUBLIC "-//W3C//DTD SVG 1.1//EN" "http://www.w3.org/Graphics/SVG/1.1/DTD/svg11.dtd">
<svg version="1.1" id="Capa_1" xmlns="http://www.w3.org/2000/svg" xmlns:xlink="http://www.w3.org/1999/xlink" x="0px" y="0px"
	 viewBox="0 0 360.332 360.332" style="enable-background:new 0 0 360.332 360.332;" xml:space="preserve">
<g>
	<path d="M360.332,74.135c0-1.989-0.791-3.897-2.197-5.303l-18.457-18.457c-2.928-2.929-7.678-2.929-10.607,0l-52.451,52.451
		c-12.496-7.18-27.229-11.342-42.998-11.342H85.594c-16.228,0-31.351,4.413-44.075,11.98L30.91,92.856
		c-7.06-7.06-18.547-7.061-25.606,0C1.884,96.275,0,100.822,0,105.659c0,4.836,1.883,9.384,5.304,12.804l10.05,10.05
		c-7.225,11.24-11.39,24.345-11.39,38.336v119.638c0,14.152,11.513,25.666,25.665,25.666h259.957
		c14.15,0,25.664-11.514,25.664-25.666V166.849c0-12.669-3.418-24.61-9.426-35.101l52.311-52.311
		C359.541,78.032,360.332,76.124,360.332,74.135z M15,105.659c0-0.48,0.118-1.404,0.91-2.196c1.211-1.211,3.183-1.211,4.394,0
		l8.939,8.939c-1.559,1.376-3.064,2.801-4.502,4.285l-8.831-8.83C15.118,107.064,15,106.139,15,105.659z M59.953,169.209
		l-5.931-5.931c-1.211-1.211-1.211-3.182,0-4.394c1.212-1.211,3.182-1.211,4.393,0l5.931,5.932
		C62.71,166.098,61.235,167.573,59.953,169.209z M249.729,297.153H69.486V185.014c0-5.881,4.784-10.665,10.665-10.665h158.914
		c5.881,0,10.664,4.784,10.664,10.665V297.153z M300.25,286.487c0,5.881-4.783,10.666-10.664,10.666h-24.857V185.014
		c0-14.152-11.514-25.665-25.664-25.665H80.151c-0.019,0-0.038,0.001-0.057,0.001l-11.073-11.073c-7.06-7.06-18.547-7.06-25.606,0
		c-7.06,7.06-7.06,18.547,0,25.606l11.072,11.072c0,0.02-0.001,0.039-0.001,0.058v112.139H29.629
		c-5.881,0-10.665-4.785-10.665-10.666V166.849c0-33.285,29.89-60.365,66.63-60.365h148.027c36.74,0,66.629,27.079,66.629,60.365
		V286.487z M296.971,119.389c-2.436-2.767-5.08-5.368-7.91-7.791l45.315-45.313l7.85,7.85L296.971,119.389z"/>
</g>
<g>
</g>
<g>
</g>
<g>
</g>
<g>
</g>
<g>
</g>
<g>
</g>
<g>
</g>
<g>
</g>
<g>
</g>
<g>
</g>
<g>
</g>
<g>
</g>
<g>
</g>
<g>
</g>
<g>
</g>
</svg>
