<?xml version="1.0" encoding="iso-8859-1"?>
<!-- Generator: Adobe Illustrator 18.0.0, SVG Export Plug-In . SVG Version: 6.00 Build 0)  -->
<!DOCTYPE svg PUBLIC "-//W3C//DTD SVG 1.1//EN" "http://www.w3.org/Graphics/SVG/1.1/DTD/svg11.dtd">
<svg version="1.1" id="Capa_1" xmlns="http://www.w3.org/2000/svg" xmlns:xlink="http://www.w3.org/1999/xlink" x="0px" y="0px"
	 viewBox="0 0 348.049 348.049" style="enable-background:new 0 0 348.049 348.049;" xml:space="preserve">
<g>
	<path d="M317.082,188.614c-3.814-4.698-9.64-7.286-16.403-7.286c-7.073,0-14.393,2.78-20.607,7.827
		c-5.679,4.61-9.764,10.631-11.504,16.954c-1.182,4.297-1.196,8.54-0.127,12.343l-49.833,40.464V40.965
		c7.253-3.471,12.287-10.86,12.287-19.424C230.895,9.663,221.232,0,209.354,0H48.223C36.345,0,26.681,9.663,26.681,21.541
		c0,8.562,5.033,15.951,12.284,19.422v224.416c0,11.878,9.664,21.541,21.542,21.541h123.611l-15.207,12.348
		c-3.052-1.6-6.607-2.446-10.47-2.446c-7.073,0-14.393,2.78-20.607,7.828c-5.677,4.609-9.762,10.63-11.502,16.953
		c-1.96,7.123-0.731,14.107,3.372,19.16c3.814,4.698,9.641,7.286,16.404,7.286c7.073,0,14.393-2.779,20.608-7.827
		c5.677-4.609,9.763-10.63,11.503-16.952c1.183-4.297,1.197-8.54,0.128-12.342l99.53-80.816c3.051,1.599,6.604,2.445,10.467,2.445
		c7.073,0,14.393-2.78,20.608-7.828c5.677-4.609,9.762-10.631,11.502-16.953C322.415,200.651,321.186,193.668,317.082,188.614z
		 M48.223,15h161.131c3.606,0,6.541,2.935,6.541,6.541c0,3.607-2.935,6.543-6.541,6.543H48.223c-3.607,0-6.542-2.936-6.542-6.543
		C41.681,17.935,44.615,15,48.223,15z M53.965,265.379V43.084h149.643v222.295c0,3.606-2.936,6.541-6.544,6.541h-1.906
		c1.773-4.148,2.774-8.935,2.774-14.075c0-12.954-6.356-23.671-15.41-27.531V102.155c9.054-3.86,15.41-14.576,15.41-27.53
		c0-16.305-10.063-29.076-22.91-29.076c-5.988,0-11.37,2.776-15.412,7.39c-4.041-4.613-9.423-7.39-15.41-7.39
		c-5.988,0-11.37,2.776-15.411,7.39c-4.041-4.613-9.423-7.39-15.41-7.39c-5.988,0-11.37,2.776-15.412,7.39
		c-4.041-4.613-9.423-7.39-15.41-7.39c-12.848,0-22.912,12.771-22.912,29.076c0,12.954,6.357,23.67,15.412,27.53v128.158
		c-9.056,3.86-15.412,14.576-15.412,27.531c0,5.14,1.002,9.927,2.775,14.075h-1.911C56.9,271.92,53.965,268.985,53.965,265.379z
		 M74.644,257.845c0-8.057,4.177-14.076,7.912-14.076c3.734,0,7.91,6.02,7.91,14.076c0,8.056-4.176,14.075-7.91,14.075
		C78.82,271.92,74.644,265.9,74.644,257.845z M175.022,88.7c-3.735,0-7.912-6.02-7.912-14.075c0-8.057,4.177-14.076,7.912-14.076
		c3.734,0,7.91,6.019,7.91,14.076C182.932,82.681,178.756,88.7,175.022,88.7z M167.522,102.155v128.158
		c-2.971,1.267-5.651,3.265-7.912,5.845c-2.26-2.58-4.94-4.578-7.91-5.845V102.155c2.97-1.267,5.65-3.265,7.91-5.845
		C161.87,98.891,164.551,100.889,167.522,102.155z M144.199,88.7c-3.734,0-7.911-6.02-7.911-14.075
		c0-8.057,4.177-14.076,7.911-14.076c3.734,0,7.91,6.019,7.91,14.076C152.11,82.681,147.934,88.7,144.199,88.7z M136.699,102.155
		v128.158c-2.97,1.267-5.651,3.265-7.911,5.845c-2.26-2.58-4.941-4.578-7.91-5.845V102.155c2.97-1.267,5.65-3.265,7.91-5.845
		C131.048,98.891,133.73,100.889,136.699,102.155z M113.378,88.7c-3.735,0-7.912-6.02-7.912-14.075
		c0-8.057,4.177-14.076,7.912-14.076c3.734,0,7.91,6.019,7.91,14.076C121.288,82.681,117.112,88.7,113.378,88.7z M105.878,102.155
		v128.158c-2.971,1.267-5.651,3.265-7.912,5.845c-2.26-2.58-4.94-4.578-7.91-5.845V102.155c2.97-1.267,5.65-3.265,7.91-5.845
		C100.227,98.891,102.907,100.889,105.878,102.155z M82.556,88.7c-3.735,0-7.912-6.02-7.912-14.075
		c0-8.057,4.177-14.076,7.912-14.076c3.734,0,7.91,6.019,7.91,14.076C90.466,82.681,86.29,88.7,82.556,88.7z M105.466,257.845
		c0-8.057,4.177-14.076,7.912-14.076c3.734,0,7.91,6.02,7.91,14.076c0,8.056-4.176,14.075-7.91,14.075
		C109.643,271.92,105.466,265.9,105.466,257.845z M136.288,257.845c0-8.057,4.177-14.076,7.911-14.076
		c3.734,0,7.91,6.02,7.91,14.076c0,8.056-4.176,14.075-7.91,14.075C140.465,271.92,136.288,265.9,136.288,257.845z M167.11,257.845
		c0-8.057,4.177-14.076,7.912-14.076c3.734,0,7.91,6.02,7.91,14.076c0,8.056-4.176,14.075-7.91,14.075
		C171.286,271.92,167.11,265.9,167.11,257.845z M163.757,319.289c-0.904,3.285-3.271,6.671-6.495,9.288
		c-3.5,2.842-7.565,4.472-11.153,4.472c-1.249,0-3.529-0.227-4.76-1.741c-1.384-1.704-0.941-4.318-0.554-5.726
		c0.903-3.285,3.271-6.671,6.495-9.288c3.499-2.843,7.564-4.473,11.151-4.473c1.25,0,3.531,0.227,4.762,1.742
		C164.587,315.268,164.145,317.882,163.757,319.289z M305.992,203.796c-0.904,3.285-3.271,6.671-6.494,9.288
		c-3.501,2.843-7.565,4.473-11.153,4.473c-1.25,0-3.53-0.227-4.76-1.74c-1.385-1.706-0.942-4.32-0.556-5.727
		c0.904-3.286,3.272-6.672,6.496-9.289c3.5-2.842,7.565-4.473,11.153-4.473c1.249,0,3.529,0.227,4.759,1.741
		C306.822,199.774,306.379,202.389,305.992,203.796z"/>
</g>
<g>
</g>
<g>
</g>
<g>
</g>
<g>
</g>
<g>
</g>
<g>
</g>
<g>
</g>
<g>
</g>
<g>
</g>
<g>
</g>
<g>
</g>
<g>
</g>
<g>
</g>
<g>
</g>
<g>
</g>
</svg>
