<?xml version="1.0" encoding="iso-8859-1"?>
<!-- Generator: Adobe Illustrator 18.0.0, SVG Export Plug-In . SVG Version: 6.00 Build 0)  -->
<!DOCTYPE svg PUBLIC "-//W3C//DTD SVG 1.1//EN" "http://www.w3.org/Graphics/SVG/1.1/DTD/svg11.dtd">
<svg version="1.1" id="Capa_1" xmlns="http://www.w3.org/2000/svg" xmlns:xlink="http://www.w3.org/1999/xlink" x="0px" y="0px"
	 viewBox="0 0 348.464 348.464" style="enable-background:new 0 0 348.464 348.464;" xml:space="preserve">
<g>
	<g>
		<g>
			<path d="M164.169,134.196h-43.161c-12.018,0-21.795-9.776-21.795-21.794s9.777-21.794,21.795-21.794h43.161
				c12.018,0,21.794,9.776,21.794,21.794S176.187,134.196,164.169,134.196z M121.008,105.608c-3.747,0-6.795,3.048-6.795,6.794
				s3.048,6.794,6.795,6.794h43.161c3.746,0,6.794-3.048,6.794-6.794s-3.048-6.794-6.794-6.794H121.008z"/>
		</g>
		<path d="M281.459,333.464h-49.885c-5.679,0-10.298-4.619-10.298-10.297v-52.132c0-13.949-11.348-25.298-25.296-25.298
			c-13.95,0-25.299,11.349-25.299,25.298v52.132c0,5.678-4.619,10.297-10.296,10.297c-5.679,0-10.298-4.619-10.298-10.297V210.966
			h1.269c33.951,0,42.629-14.541,55.645-50.241c18.457-50.62,18.669-102.081,18.669-104.247V39.162
			C225.671,17.568,208.104,0,186.51,0c-4.143,0-7.5,3.358-7.5,7.5v16.988h-2.614V7.5c0-4.142-3.357-7.5-7.5-7.5
			c-4.143,0-7.5,3.358-7.5,7.5v16.988h-2.539V7.5c0-4.142-3.357-7.5-7.5-7.5c-4.143,0-7.5,3.358-7.5,7.5v16.988h-2.538V7.5
			c0-4.142-3.357-7.5-7.5-7.5c-4.143,0-7.5,3.358-7.5,7.5v16.988h-2.538V7.5c0-4.142-3.357-7.5-7.5-7.5c-4.143,0-7.5,3.358-7.5,7.5
			v16.988h-2.612V7.5c0-4.142-3.357-7.5-7.5-7.5C77.074,0,59.505,17.568,59.505,39.162v17.296c0,0.007-0.001,0.013-0.001,0.02
			c0,2.166,0.212,53.627,18.669,104.247c13.017,35.7,21.694,50.241,55.646,50.241h1.27v112.201
			c0,13.949,11.349,25.297,25.298,25.297c13.948,0,25.296-11.348,25.296-25.297v-52.132c0-5.679,4.62-10.298,10.299-10.298
			c5.677,0,10.296,4.619,10.296,10.298v52.132c0,13.949,11.349,25.297,25.298,25.297h49.885c4.143,0,7.5-3.357,7.5-7.5
			C288.959,336.822,285.602,333.464,281.459,333.464z M74.505,39.162c0-10.706,7-19.809,16.663-22.971v15.797
			c0,4.142,3.357,7.5,7.5,7.5h87.842c4.143,0,7.5-3.358,7.5-7.5V16.191c9.663,3.163,16.661,12.265,16.661,22.971v9.815H74.505
			V39.162z M133.819,195.966c-23.32,0-28.757-5.283-41.554-40.38c-13.534-37.121-16.756-75.729-17.522-91.608h135.694
			c-0.759,15.861-3.966,54.416-17.526,91.608c-12.797,35.097-18.233,40.38-41.554,40.38H133.819z"/>
	</g>
</g>
<g>
</g>
<g>
</g>
<g>
</g>
<g>
</g>
<g>
</g>
<g>
</g>
<g>
</g>
<g>
</g>
<g>
</g>
<g>
</g>
<g>
</g>
<g>
</g>
<g>
</g>
<g>
</g>
<g>
</g>
</svg>
