<?xml version="1.0" encoding="iso-8859-1"?>
<!-- Generator: Adobe Illustrator 18.0.0, SVG Export Plug-In . SVG Version: 6.00 Build 0)  -->
<!DOCTYPE svg PUBLIC "-//W3C//DTD SVG 1.1//EN" "http://www.w3.org/Graphics/SVG/1.1/DTD/svg11.dtd">
<svg version="1.1" id="Capa_1" xmlns="http://www.w3.org/2000/svg" xmlns:xlink="http://www.w3.org/1999/xlink" x="0px" y="0px"
	 viewBox="0 0 328.945 328.945" style="enable-background:new 0 0 328.945 328.945;" xml:space="preserve">
<g>
	<g>
		<path d="M275.286,137.852c4.143,0,7.5-3.358,7.5-7.5V7.5c0-4.142-3.357-7.5-7.5-7.5H53.658c-4.143,0-7.5,3.358-7.5,7.5v122.852
			c0,4.142,3.357,7.5,7.5,7.5h35.312v4.186H53.658c-4.143,0-7.5,3.358-7.5,7.5v171.908c0,4.142,3.357,7.5,7.5,7.5h221.628
			c4.143,0,7.5-3.358,7.5-7.5V149.537c0-4.142-3.357-7.5-7.5-7.5h-35.311v-4.186H275.286z M61.158,15h206.628v107.852H61.158V15z
			 M267.786,313.945H61.158V157.037h206.628V313.945z M224.975,142.037H103.971v-4.186h121.004V142.037z"/>
		<path d="M216.365,268.802h-74.921c-4.91-4.26-11.609-6.892-18.989-6.892c-15.017,0-27.233,10.879-27.233,24.251
			c0,13.372,12.217,24.25,27.233,24.25c7.38,0,14.08-2.632,18.989-6.892h74.921c9.572,0,17.359-7.787,17.359-17.358
			C233.724,276.589,225.937,268.802,216.365,268.802z M110.221,286.161c0-5.014,5.603-9.251,12.233-9.251
			c6.631,0,12.232,4.236,12.232,9.251c0,5.014-5.602,9.25-12.232,9.25C115.824,295.411,110.221,291.175,110.221,286.161z
			 M216.365,288.519h-66.809c0.085-0.776,0.131-1.563,0.131-2.358s-0.046-1.583-0.131-2.359h66.809c1.301,0,2.359,1.058,2.359,2.359
			C218.724,287.461,217.665,288.519,216.365,288.519z"/>
		<path d="M174.292,33.119c0-4.142-3.357-7.5-7.5-7.5H78.117c-4.143,0-7.5,3.358-7.5,7.5v30.806c0,4.142,3.357,7.5,7.5,7.5
			c4.143,0,7.5-3.358,7.5-7.5V40.619h81.176C170.935,40.619,174.292,37.261,174.292,33.119z"/>
		<path d="M84.665,176.896c-4.143,0-7.5,3.358-7.5,7.5v66.815c0,4.142,3.357,7.5,7.5,7.5H244.28c4.143,0,7.5-3.358,7.5-7.5v-66.815
			c0-4.142-3.357-7.5-7.5-7.5H84.665z M92.165,191.896h92.748v51.815H92.165V191.896z M236.78,243.712h-36.866v-51.815h36.866
			V243.712z"/>
	</g>
</g>
<g>
</g>
<g>
</g>
<g>
</g>
<g>
</g>
<g>
</g>
<g>
</g>
<g>
</g>
<g>
</g>
<g>
</g>
<g>
</g>
<g>
</g>
<g>
</g>
<g>
</g>
<g>
</g>
<g>
</g>
</svg>
