<?xml version="1.0" encoding="iso-8859-1"?>
<!-- Generator: Adobe Illustrator 18.0.0, SVG Export Plug-In . SVG Version: 6.00 Build 0)  -->
<!DOCTYPE svg PUBLIC "-//W3C//DTD SVG 1.1//EN" "http://www.w3.org/Graphics/SVG/1.1/DTD/svg11.dtd">
<svg version="1.1" id="Capa_1" xmlns="http://www.w3.org/2000/svg" xmlns:xlink="http://www.w3.org/1999/xlink" x="0px" y="0px"
	 viewBox="0 0 346.548 346.548" style="enable-background:new 0 0 346.548 346.548;" xml:space="preserve">
<g>
	<g>
		<path d="M216.821,137.837c11.768-3.364,22.631-8.09,32.07-14.085c21.394-13.587,33.175-32.005,33.175-51.861
			c0-19.857-11.781-38.275-33.175-51.862C228.555,7.113,201.667,0,173.181,0c-28.486,0-55.374,7.113-75.71,20.028
			C76.078,33.615,64.296,52.033,64.296,71.891c0,19.856,11.781,38.274,33.175,51.861c9.5,6.033,20.442,10.781,32.297,14.149
			c-38.396,16.846-65.284,55.221-65.284,99.764c0,60.038,48.845,108.884,108.884,108.884c60.039,0,108.884-48.846,108.884-108.884
			C282.251,193.064,255.294,154.648,216.821,137.837z M79.296,71.891c0-14.542,9.311-28.463,26.216-39.2
			C123.475,21.283,147.506,15,173.181,15s49.706,6.283,67.669,17.69c16.905,10.737,26.216,24.658,26.216,39.2
			c0,14.541-9.311,28.462-26.216,39.199c-17.963,11.407-41.994,17.689-67.669,17.689s-49.706-6.282-67.669-17.689
			C88.607,100.353,79.296,86.432,79.296,71.891z M173.368,331.548c-51.768,0-93.884-42.116-93.884-93.884
			c0-51.769,42.116-93.885,93.884-93.885c51.767,0,93.884,42.116,93.884,93.885C267.251,289.432,225.135,331.548,173.368,331.548z"
			/>
		<path d="M180.681,34.215c0-4.143-3.357-7.5-7.5-7.5c-42.856,0-76.428,19.844-76.428,45.176c0,4.142,3.357,7.5,7.5,7.5
			s7.5-3.358,7.5-7.5c0-14.273,25.227-30.176,61.428-30.176C177.324,41.715,180.681,38.356,180.681,34.215z"/>
		<path d="M139.085,169.851c-18.514,0-33.575,15.063-33.575,33.576c0,18.514,15.062,33.575,33.575,33.575
			c18.514,0,33.575-15.062,33.575-33.575C172.661,184.913,157.599,169.851,139.085,169.851z M139.085,222.002
			c-10.242,0-18.575-8.333-18.575-18.575c0-10.243,8.333-18.576,18.575-18.576s18.575,8.333,18.575,18.576
			C157.661,213.669,149.328,222.002,139.085,222.002z"/>
		<path d="M139.085,238.325c-18.514,0-33.575,15.063-33.575,33.576c0,18.514,15.062,33.575,33.575,33.575
			c18.514,0,33.575-15.061,33.575-33.575C172.661,253.388,157.599,238.325,139.085,238.325z M139.085,290.477
			c-10.242,0-18.575-8.333-18.575-18.575c0-10.243,8.333-18.576,18.575-18.576s18.575,8.333,18.575,18.576
			C157.661,282.143,149.328,290.477,139.085,290.477z"/>
		<path d="M207.649,237.002c18.514,0,33.575-15.062,33.575-33.575c0-18.514-15.062-33.576-33.575-33.576
			s-33.575,15.063-33.575,33.576C174.074,221.94,189.135,237.002,207.649,237.002z M207.649,184.851
			c10.242,0,18.575,8.333,18.575,18.576c0,10.242-8.333,18.575-18.575,18.575s-18.575-8.333-18.575-18.575
			C189.074,193.184,197.407,184.851,207.649,184.851z"/>
		<path d="M207.649,238.325c-18.514,0-33.575,15.063-33.575,33.576c0,18.514,15.061,33.575,33.575,33.575
			s33.575-15.061,33.575-33.575C241.224,253.388,226.163,238.325,207.649,238.325z M207.649,290.477
			c-10.242,0-18.575-8.333-18.575-18.575c0-10.243,8.333-18.576,18.575-18.576s18.575,8.333,18.575,18.576
			C226.224,282.143,217.891,290.477,207.649,290.477z"/>
	</g>
</g>
<g>
</g>
<g>
</g>
<g>
</g>
<g>
</g>
<g>
</g>
<g>
</g>
<g>
</g>
<g>
</g>
<g>
</g>
<g>
</g>
<g>
</g>
<g>
</g>
<g>
</g>
<g>
</g>
<g>
</g>
</svg>
