<?xml version="1.0" encoding="iso-8859-1"?>
<!-- Generator: Adobe Illustrator 18.0.0, SVG Export Plug-In . SVG Version: 6.00 Build 0)  -->
<!DOCTYPE svg PUBLIC "-//W3C//DTD SVG 1.1//EN" "http://www.w3.org/Graphics/SVG/1.1/DTD/svg11.dtd">
<svg version="1.1" id="Capa_1" xmlns="http://www.w3.org/2000/svg" xmlns:xlink="http://www.w3.org/1999/xlink" x="0px" y="0px"
	 viewBox="0 0 384.391 384.391" style="enable-background:new 0 0 384.391 384.391;" xml:space="preserve">
<g>
	<g>
		<path d="M178.081,81.174c0.443-13.242-2.583-32.066-15.549-39.215V7.5c0-4.143-3.358-7.5-7.5-7.5c-4.142,0-7.5,3.357-7.5,7.5
			v34.459c-12.966,7.15-15.992,25.973-15.549,39.215c-4.516,3.789-7.451,9.777-7.451,16.527v261.074
			c0,14.125,11.492,25.615,25.617,25.615h9.768c14.124,0,25.616-11.49,25.616-25.615V97.701
			C185.532,90.951,182.597,84.965,178.081,81.174z M155.029,54.971c6.004,3.09,7.688,14.16,7.976,21.99h-15.965
			C147.313,69.137,148.983,58.066,155.029,54.971z M139.532,97.701c0-3.285,1.958-5.74,3.708-5.74h23.585
			c1.75,0,3.707,2.455,3.707,5.74v241.385h-31V97.701z M159.917,369.391h-9.768c-5.854,0-10.617-4.762-10.617-10.615v-4.689h31
			v4.689C170.532,364.629,165.77,369.391,159.917,369.391z"/>
		<path d="M252.358,231.734h-45.77c-4.142,0-7.5,3.357-7.5,7.5v118.389c0,14.074,11.451,25.525,25.526,25.525h9.719
			c14.075,0,25.525-11.451,25.525-25.525V239.234C259.858,235.092,256.5,231.734,252.358,231.734z M244.858,357.623
			c0,5.805-4.722,10.525-10.525,10.525h-9.719c-5.804,0-10.526-4.721-10.526-10.525V246.734h30.77V357.623z"/>
	</g>
</g>
<g>
</g>
<g>
</g>
<g>
</g>
<g>
</g>
<g>
</g>
<g>
</g>
<g>
</g>
<g>
</g>
<g>
</g>
<g>
</g>
<g>
</g>
<g>
</g>
<g>
</g>
<g>
</g>
<g>
</g>
</svg>
