<?xml version="1.0" encoding="iso-8859-1"?>
<!-- Generator: Adobe Illustrator 18.0.0, SVG Export Plug-In . SVG Version: 6.00 Build 0)  -->
<!DOCTYPE svg PUBLIC "-//W3C//DTD SVG 1.1//EN" "http://www.w3.org/Graphics/SVG/1.1/DTD/svg11.dtd">
<svg version="1.1" id="Capa_1" xmlns="http://www.w3.org/2000/svg" xmlns:xlink="http://www.w3.org/1999/xlink" x="0px" y="0px"
	 viewBox="0 0 351.023 351.023" style="enable-background:new 0 0 351.023 351.023;" xml:space="preserve">
<g>
	<path d="M284.253,300.263c-0.175-2.725-2.612-28.807-32.03-41.412c-8.604-3.688-16.444-6.254-22.744-8.316
		c-12.549-4.109-17.638-6.084-18.894-9.734c-5.794-32.377-11.557-65.023-13.888-78.248c6.031-6.697,14.515-16.283,30.419-34.262
		c1.61-1.82,2.239-4.309,1.686-6.674c-0.553-2.367-2.218-4.32-4.468-5.238c-13.052-5.33-26.714-10.984-38.993-16.145
		c-2.979-13.994-4.512-18.254-5.203-19.533c-0.099-0.182-50.465-77.303-50.465-77.303c-1.9-2.908-5.55-4.129-8.817-2.955
		c-0.64,0.231-15.994,5.871-45.934,27.006c-2.802,1.977-3.905,5.602-2.68,8.805l6.243,16.33c0,0-2.181,3.019-0.783,7.137
		c3.046,8.976,6.063,14.199,7.454,16.086c1.7,2.309,4.567,3.447,7.392,2.928c0.659-0.121,10.236-1.955,24.448-8.309
		c5.727,8.453,14.245,20.482,18.467,23.766c2.67,2.076,18.353,9.014,36.767,16.814c2.096,10.508,4.869,25.524,8.449,46.875
		c-4.032,4.396-16.932,17.98-16.932,17.98c-13.099,13.809-18.105,36.117-18.123,36.221c-0.053,0.301-4.894,27.57-4.919,27.736
		c-0.676,4.309-5.506,6.254-19.135,10.717c-6.3,2.063-14.142,4.629-22.744,8.316c-29.42,12.608-31.856,38.691-32.03,41.412
		c-1.232,15.07,2.085,27.342,9.966,36.383c12.528,14.375,29.941,14.375,30.981,14.375c10.823-0.002,28.34-6.023,33.202-29.852
		c5.224-25.59,18.644-101.893,19.419-106.301c0.385-1.633,4.535-18.428,14.266-28.684c0,0,7.744-8.158,9.277-9.779
		c2.795,15.828,23.811,133.078,26.195,144.764c4.863,23.83,22.379,29.852,33.202,29.852c1.039,0,19.742,0.504,30.981-14.375
		C281.517,327.075,285.485,315.331,284.253,300.263z M126.249,318.169c-4.217,19.43-19.982,17.76-20.176,17.746
		c-0.109-0.008-11.011-0.926-18.066-9.199c-5.05-5.922-7.153-14.434-6.254-25.301c0.008-0.094,1.135-19.416,22.982-28.777
		c7.993-3.426,28.838-10.25,32.167-11.561C132.985,282.82,128.848,306.195,126.249,318.169z M92.984,57.431
		c0,0,2.85-2.719,0.777-6.9L88.35,36.378c15.569-10.684,26.36-16.537,32.262-19.424l16.346,25.021
		c-18.123,12.492-33.877,18.262-41.757,20.611C94.51,61.03,93.739,59.236,92.984,57.431z M144.577,82.267
		c-2.055-1.793-8.137-10.037-14.045-18.641c4.644-2.59,9.549-5.592,14.633-9.086l21.677,33.184c0.219,0.644,0.69,2.166,1.468,5.287
		C155.82,87.655,146.75,83.599,144.577,82.267z M208.885,126.259c-6.443,7.283-11.401,12.879-15.408,17.385
		c-1.733-10.059-3.261-18.527-4.604-25.654C195.738,120.847,202.567,123.665,208.885,126.259z M263.043,326.716
		c-7.296,9.441-18.297,9.219-18.437,9.234c-0.647,0.08-15.84,1.654-19.806-17.781c-1.866-9.141-5.991-31.643-10.569-57.059
		c3.306,1.297,24.09,8.102,32.083,11.527c21.517,9.221,22.975,28.684,22.983,28.777
		C270.197,312.282,267.801,320.558,263.043,326.716z"/>
</g>
<g>
</g>
<g>
</g>
<g>
</g>
<g>
</g>
<g>
</g>
<g>
</g>
<g>
</g>
<g>
</g>
<g>
</g>
<g>
</g>
<g>
</g>
<g>
</g>
<g>
</g>
<g>
</g>
<g>
</g>
</svg>
