<?xml version="1.0" encoding="iso-8859-1"?>
<!-- Generator: Adobe Illustrator 18.0.0, SVG Export Plug-In . SVG Version: 6.00 Build 0)  -->
<!DOCTYPE svg PUBLIC "-//W3C//DTD SVG 1.1//EN" "http://www.w3.org/Graphics/SVG/1.1/DTD/svg11.dtd">
<svg version="1.1" id="Capa_1" xmlns="http://www.w3.org/2000/svg" xmlns:xlink="http://www.w3.org/1999/xlink" x="0px" y="0px"
	 viewBox="0 0 367.93 367.93" style="enable-background:new 0 0 367.93 367.93;" xml:space="preserve">
<g>
	<g>
		<path d="M172.847,106.29h-1.092V91.689c0-4.142-3.357-7.5-7.5-7.5h-45.197c-4.143,0-7.5,3.358-7.5,7.5v14.601h-1.09
			c-4.143,0-7.5,3.358-7.5,7.5v229.125c0,13.793,11.221,25.015,25.014,25.015h27.35c13.794,0,25.016-11.222,25.016-25.015V113.79
			C180.347,109.648,176.989,106.29,172.847,106.29z M126.558,99.189h30.197v7.101h-30.197V99.189z M165.347,342.915
			c0,5.522-4.493,10.015-10.016,10.015h-27.35c-5.521,0-10.014-4.493-10.014-10.015V121.29h47.379V342.915z"/>
		<path d="M257.462,228.133h-0.989v-17.404c0-4.142-3.357-7.5-7.5-7.5h-8.363V126.22h0.427c4.143,0,7.5-3.358,7.5-7.5
			s-3.357-7.5-7.5-7.5h-0.427v-2.077h1.75c4.143,0,7.5-3.358,7.5-7.5c0-4.142-3.357-7.5-7.5-7.5h-1.75v-2.077h4.761
			c4.143,0,7.5-3.358,7.5-7.5c0-4.142-3.357-7.5-7.5-7.5h-4.761v-2.077h8.254c4.143,0,7.5-3.358,7.5-7.5s-3.357-7.5-7.5-7.5h-8.254
			v-2.077h4.761c4.143,0,7.5-3.358,7.5-7.5s-3.357-7.5-7.5-7.5h-4.761v-2.077h1.75c4.143,0,7.5-3.358,7.5-7.5s-3.357-7.5-7.5-7.5
			h-1.75v-2.077h0.427c4.143,0,7.5-3.358,7.5-7.5s-3.357-7.5-7.5-7.5h-0.427V7.5c0-4.142-3.357-7.5-7.5-7.5
			c-4.142,0-7.5,3.358-7.5,7.5v1.257h-0.427c-4.143,0-7.5,3.358-7.5,7.5s3.357,7.5,7.5,7.5h0.427v2.077h-1.75
			c-4.142,0-7.5,3.358-7.5,7.5s3.358,7.5,7.5,7.5h1.75v2.077h-4.761c-4.143,0-7.5,3.358-7.5,7.5s3.357,7.5,7.5,7.5h4.761v2.077
			h-8.254c-4.143,0-7.5,3.358-7.5,7.5s3.357,7.5,7.5,7.5h8.254v2.077h-4.761c-4.143,0-7.5,3.358-7.5,7.5c0,4.142,3.357,7.5,7.5,7.5
			h4.761v2.077h-1.75c-4.142,0-7.5,3.358-7.5,7.5c0,4.142,3.358,7.5,7.5,7.5h1.75v2.077h-0.427c-4.143,0-7.5,3.358-7.5,7.5
			s3.357,7.5,7.5,7.5h0.427v77.009h-8.363c-4.143,0-7.5,3.358-7.5,7.5v17.404h-0.989c-4.143,0-7.5,3.358-7.5,7.5v107.283
			c0,13.793,11.222,25.015,25.016,25.015h13.674c13.794,0,25.016-11.222,25.016-25.015V235.633
			C264.962,231.491,261.605,228.133,257.462,228.133z M224.746,218.229h16.727v9.904h-16.727V218.229z M249.962,342.915
			c0,5.522-4.493,10.015-10.016,10.015h-13.674c-5.522,0-10.016-4.493-10.016-10.015v-99.783h0.989h31.727h0.989V342.915z"/>
	</g>
</g>
<g>
</g>
<g>
</g>
<g>
</g>
<g>
</g>
<g>
</g>
<g>
</g>
<g>
</g>
<g>
</g>
<g>
</g>
<g>
</g>
<g>
</g>
<g>
</g>
<g>
</g>
<g>
</g>
<g>
</g>
</svg>
