<?xml version="1.0" encoding="iso-8859-1"?>
<!-- Generator: Adobe Illustrator 18.0.0, SVG Export Plug-In . SVG Version: 6.00 Build 0)  -->
<!DOCTYPE svg PUBLIC "-//W3C//DTD SVG 1.1//EN" "http://www.w3.org/Graphics/SVG/1.1/DTD/svg11.dtd">
<svg version="1.1" id="Capa_1" xmlns="http://www.w3.org/2000/svg" xmlns:xlink="http://www.w3.org/1999/xlink" x="0px" y="0px"
	 viewBox="0 0 311.398 311.398" style="enable-background:new 0 0 311.398 311.398;" xml:space="preserve">
<g>
	<path d="M303.898,84.16H7.5c-4.142,0-7.5,3.357-7.5,7.5v128.078c0,4.143,3.358,7.5,7.5,7.5h296.398c4.142,0,7.5-3.357,7.5-7.5
		V91.66C311.398,87.518,308.04,84.16,303.898,84.16z M296.398,99.16v17.952H15V99.16H296.398z M251.192,132.112
		c-0.48,13.072-11.259,23.561-24.448,23.561c-13.188,0-23.965-10.488-24.446-23.561H251.192z M106.775,132.112
		c-0.48,13.072-11.259,23.561-24.448,23.561c-13.188,0-23.965-10.488-24.446-23.561H106.775z M15,212.238v-80.126h27.881
		c0.045,1.961,0.231,3.886,0.553,5.766l-12.138,3.434c-3.986,1.127-6.303,5.273-5.176,9.258c0.934,3.304,3.941,5.461,7.213,5.461
		c0.676,0,1.363-0.092,2.045-0.285l13.396-3.789c1.542,2.483,3.35,4.782,5.386,6.859l-9.106,9.107
		c-2.929,2.929-2.928,7.678,0.001,10.606c1.464,1.464,3.383,2.196,5.303,2.196c1.919,0,3.839-0.732,5.304-2.197l11.072-11.073
		c2.569,1.109,5.278,1.95,8.093,2.494v13.33c0,4.143,3.358,7.5,7.5,7.5c4.142,0,7.5-3.357,7.5-7.5v-13.33
		c2.814-0.544,5.523-1.384,8.092-2.493l11.075,11.074c1.465,1.464,3.384,2.196,5.303,2.196c1.92,0,3.839-0.732,5.304-2.197
		c2.929-2.929,2.928-7.678,0-10.606l-9.107-9.107c2.189-2.233,4.116-4.722,5.73-7.421l15.379,4.35
		c0.682,0.193,1.369,0.285,2.045,0.285c3.271,0,6.279-2.157,7.213-5.461c1.128-3.985-1.19-8.131-5.176-9.258l-14.352-4.059
		c0.26-1.681,0.401-3.398,0.441-5.141h65.523c0.045,1.961,0.231,3.886,0.553,5.766l-12.138,3.434
		c-3.986,1.127-6.303,5.273-5.176,9.258c0.934,3.304,3.941,5.461,7.213,5.461c0.676,0,1.363-0.092,2.045-0.285l13.396-3.789
		c1.541,2.483,3.35,4.782,5.386,6.859l-9.106,9.107c-2.929,2.929-2.928,7.678,0.001,10.606c1.464,1.465,3.383,2.196,5.303,2.196
		c1.919,0,3.839-0.732,5.304-2.197l11.071-11.073c2.569,1.109,5.279,1.95,8.094,2.494v13.33c0,4.143,3.358,7.5,7.5,7.5
		c4.142,0,7.5-3.357,7.5-7.5v-13.33c2.814-0.544,5.523-1.384,8.092-2.493l11.075,11.074c1.465,1.464,3.384,2.196,5.303,2.196
		s3.839-0.732,5.304-2.197c2.929-2.929,2.928-7.678-0.001-10.606l-9.107-9.107c2.189-2.232,4.117-4.722,5.731-7.421l15.379,4.35
		c0.682,0.193,1.369,0.285,2.045,0.285c3.272,0,6.279-2.157,7.213-5.461c1.127-3.985-1.19-8.131-5.176-9.258l-14.352-4.059
		c0.26-1.681,0.401-3.398,0.441-5.141h30.207v80.126H15z"/>
</g>
<g>
</g>
<g>
</g>
<g>
</g>
<g>
</g>
<g>
</g>
<g>
</g>
<g>
</g>
<g>
</g>
<g>
</g>
<g>
</g>
<g>
</g>
<g>
</g>
<g>
</g>
<g>
</g>
<g>
</g>
</svg>
