<?xml version="1.0" encoding="iso-8859-1"?>
<!-- Generator: Adobe Illustrator 18.0.0, SVG Export Plug-In . SVG Version: 6.00 Build 0)  -->
<!DOCTYPE svg PUBLIC "-//W3C//DTD SVG 1.1//EN" "http://www.w3.org/Graphics/SVG/1.1/DTD/svg11.dtd">
<svg version="1.1" id="Capa_1" xmlns="http://www.w3.org/2000/svg" xmlns:xlink="http://www.w3.org/1999/xlink" x="0px" y="0px"
	 viewBox="0 0 388.207 388.207" style="enable-background:new 0 0 388.207 388.207;" xml:space="preserve">
<g>
	<g>
		<path d="M175.403,185.838c-1.98,0-3.91,0.809-5.309,2.2c-1.391,1.4-2.191,3.33-2.191,5.31c0,1.97,0.8,3.9,2.191,5.3
			c1.399,1.4,3.33,2.2,5.309,2.2c1.97,0,3.9-0.8,5.3-2.2c1.4-1.4,2.2-3.329,2.2-5.3c0-1.98-0.8-3.91-2.2-5.31
			C179.303,186.647,177.373,185.838,175.403,185.838z"/>
		<path d="M175.403,35.288c-1.98,0-3.91,0.81-5.309,2.2c-1.391,1.4-2.191,3.33-2.191,5.31c0,1.97,0.8,3.9,2.191,5.3
			c1.399,1.4,3.33,2.2,5.309,2.2c1.97,0,3.9-0.8,5.3-2.2c1.4-1.4,2.2-3.33,2.2-5.3c0-1.98-0.8-3.91-2.2-5.31
			C179.303,36.097,177.373,35.288,175.403,35.288z"/>
		<path d="M175.403,65.398c-1.98,0-3.91,0.81-5.309,2.199c-1.391,1.4-2.191,3.33-2.191,5.311c0,1.97,0.8,3.899,2.191,5.3
			c1.399,1.4,3.33,2.2,5.309,2.2c1.97,0,3.9-0.8,5.3-2.2c1.4-1.4,2.2-3.33,2.2-5.3c0-1.98-0.8-3.91-2.2-5.311
			C179.303,66.207,177.373,65.398,175.403,65.398z"/>
		<path d="M175.403,95.508c-1.98,0-3.91,0.81-5.309,2.2c-1.391,1.4-2.191,3.33-2.191,5.31c0,1.97,0.8,3.9,2.191,5.3
			c1.399,1.4,3.33,2.2,5.309,2.2c1.97,0,3.9-0.8,5.3-2.2c1.4-1.4,2.2-3.33,2.2-5.3c0-1.98-0.8-3.91-2.2-5.31
			C179.303,96.317,177.373,95.508,175.403,95.508z"/>
		<path d="M175.403,125.618c-1.98,0-3.91,0.81-5.309,2.2c-1.391,1.4-2.191,3.33-2.191,5.31c0,1.97,0.8,3.9,2.191,5.3
			c1.399,1.4,3.33,2.2,5.309,2.2c1.97,0,3.9-0.8,5.3-2.2c1.4-1.4,2.2-3.33,2.2-5.3c0-1.98-0.8-3.91-2.2-5.31
			C179.303,126.427,177.373,125.618,175.403,125.618z"/>
		<path d="M175.403,155.728c-1.98,0-3.91,0.81-5.309,2.199c-1.391,1.4-2.191,3.33-2.191,5.311c0,1.97,0.8,3.899,2.191,5.3
			c1.399,1.4,3.33,2.2,5.309,2.2c1.97,0,3.9-0.8,5.3-2.2c1.4-1.4,2.2-3.33,2.2-5.3c0-1.98-0.8-3.91-2.2-5.311
			C179.303,156.538,177.373,155.728,175.403,155.728z"/>
		<path d="M212.803,185.838c-1.98,0-3.91,0.809-5.31,2.2c-1.391,1.4-2.19,3.33-2.19,5.31c0,1.97,0.8,3.9,2.19,5.3
			c1.399,1.4,3.33,2.2,5.31,2.2c1.97,0,3.9-0.8,5.3-2.2c1.4-1.4,2.2-3.329,2.2-5.3c0-1.98-0.8-3.91-2.2-5.31
			C216.704,186.647,214.773,185.838,212.803,185.838z"/>
		<path d="M212.803,35.288c-1.98,0-3.91,0.81-5.31,2.2c-1.391,1.4-2.19,3.33-2.19,5.31c0,1.97,0.8,3.9,2.19,5.3
			c1.399,1.4,3.33,2.2,5.31,2.2c1.97,0,3.9-0.8,5.3-2.2c1.4-1.4,2.2-3.33,2.2-5.3c0-1.98-0.8-3.91-2.2-5.31
			C216.704,36.097,214.773,35.288,212.803,35.288z"/>
		<path d="M212.803,65.398c-1.98,0-3.91,0.81-5.31,2.199c-1.391,1.4-2.19,3.33-2.19,5.311c0,1.97,0.8,3.899,2.19,5.3
			c1.399,1.4,3.33,2.2,5.31,2.2c1.97,0,3.9-0.8,5.3-2.2c1.4-1.4,2.2-3.33,2.2-5.3c0-1.98-0.8-3.91-2.2-5.311
			C216.704,66.207,214.773,65.398,212.803,65.398z"/>
		<path d="M212.803,95.508c-1.98,0-3.91,0.81-5.31,2.2c-1.391,1.4-2.19,3.33-2.19,5.31c0,1.97,0.8,3.9,2.19,5.3
			c1.399,1.4,3.33,2.2,5.31,2.2c1.97,0,3.9-0.8,5.3-2.2c1.4-1.4,2.2-3.33,2.2-5.3c0-1.98-0.8-3.91-2.2-5.31
			C216.704,96.317,214.773,95.508,212.803,95.508z"/>
		<path d="M212.803,125.618c-1.98,0-3.91,0.81-5.31,2.2c-1.391,1.4-2.19,3.33-2.19,5.31c0,1.97,0.8,3.9,2.19,5.3
			c1.399,1.4,3.33,2.2,5.31,2.2c1.97,0,3.9-0.8,5.3-2.2c1.4-1.4,2.2-3.33,2.2-5.3c0-1.98-0.8-3.91-2.2-5.31
			C216.704,126.427,214.773,125.618,212.803,125.618z"/>
		<path d="M212.803,155.728c-1.98,0-3.91,0.81-5.31,2.199c-1.391,1.4-2.19,3.33-2.19,5.311c0,1.97,0.8,3.899,2.19,5.3
			c1.399,1.4,3.33,2.2,5.31,2.2c1.97,0,3.9-0.8,5.3-2.2c1.4-1.4,2.2-3.33,2.2-5.3c0-1.98-0.8-3.91-2.2-5.311
			C216.704,156.538,214.773,155.728,212.803,155.728z"/>
		<path d="M273.282,80.397c4.143,0,7.5-3.358,7.5-7.5c0-4.142-3.357-7.5-7.5-7.5h-24.493V50.287h24.493c4.143,0,7.5-3.358,7.5-7.5
			s-3.357-7.5-7.5-7.5h-24.505C248.539,15.79,232.612,0,213.059,0h-37.911c-19.554,0-35.48,15.79-35.719,35.287h-24.504
			c-4.143,0-7.5,3.358-7.5,7.5s3.357,7.5,7.5,7.5h24.492v15.111h-24.492c-4.143,0-7.5,3.358-7.5,7.5c0,4.142,3.357,7.5,7.5,7.5
			h24.492v15.112h-24.492c-4.143,0-7.5,3.358-7.5,7.5s3.357,7.5,7.5,7.5h24.492v15.111h-24.492c-4.143,0-7.5,3.358-7.5,7.5
			s3.357,7.5,7.5,7.5h24.492v15.111h-24.492c-4.143,0-7.5,3.358-7.5,7.5s3.357,7.5,7.5,7.5h24.492v15.111h-24.492
			c-4.143,0-7.5,3.358-7.5,7.5c0,4.142,3.357,7.5,7.5,7.5h24.504c0.208,17.022,12.373,31.218,28.474,34.547v126.616
			c0,14.447,11.754,26.201,26.201,26.201c14.446,0,26.199-11.753,26.199-26.201V235.39c16.1-3.329,28.266-17.524,28.474-34.547
			h24.505c4.143,0,7.5-3.358,7.5-7.5c0-4.142-3.357-7.5-7.5-7.5h-24.493v-15.111h24.493c4.143,0,7.5-3.358,7.5-7.5
			s-3.357-7.5-7.5-7.5h-24.493V140.62h24.493c4.143,0,7.5-3.358,7.5-7.5s-3.357-7.5-7.5-7.5h-24.493v-15.111h24.493
			c4.143,0,7.5-3.358,7.5-7.5s-3.357-7.5-7.5-7.5h-24.493V80.397H273.282z M194.104,373.207c-6.177,0-11.201-5.024-11.201-11.201
			V236.129h22.4v125.877C205.303,368.183,200.279,373.207,194.104,373.207z M233.789,200.4c0,11.43-9.299,20.729-20.73,20.729
			h-37.911c-11.431,0-20.73-9.299-20.73-20.729V35.729c0-11.43,9.3-20.729,20.73-20.729h37.911c11.431,0,20.73,9.299,20.73,20.729
			V200.4z"/>
	</g>
</g>
<g>
</g>
<g>
</g>
<g>
</g>
<g>
</g>
<g>
</g>
<g>
</g>
<g>
</g>
<g>
</g>
<g>
</g>
<g>
</g>
<g>
</g>
<g>
</g>
<g>
</g>
<g>
</g>
<g>
</g>
</svg>
