<?xml version="1.0" encoding="iso-8859-1"?>
<!-- Generator: Adobe Illustrator 18.0.0, SVG Export Plug-In . SVG Version: 6.00 Build 0)  -->
<!DOCTYPE svg PUBLIC "-//W3C//DTD SVG 1.1//EN" "http://www.w3.org/Graphics/SVG/1.1/DTD/svg11.dtd">
<svg version="1.1" id="Capa_1" xmlns="http://www.w3.org/2000/svg" xmlns:xlink="http://www.w3.org/1999/xlink" x="0px" y="0px"
	 viewBox="0 0 302.461 302.461" style="enable-background:new 0 0 302.461 302.461;" xml:space="preserve">
<g>
	<path d="M287.537,173.324c-4.818-10.792-11.127-20.269-17.765-26.684c-11.217-10.843-19.677-9.431-23.719-7.627l-61.267,27.347
		V23.896C184.787,7.478,159.781,0,136.547,0c-15.406,0-31.583,3.292-40.74,10.294C86.648,3.292,70.472,0,55.066,0
		C31.832,0,6.825,7.478,6.825,23.896v181.778c0,16.418,25.007,23.895,48.241,23.895c5.035,0,10.154-0.353,15.084-1.07
		c-1.473,10.975,2.016,25.539,7.754,38.396c7.323,16.406,21.014,35.565,35.498,35.565c1.828,0,3.578-0.337,5.227-0.964
		c0.255-0.082,166.752-74.382,166.752-74.382C300.369,220.423,297.006,194.541,287.537,173.324z M103.307,202.73V41.816
		c9.205,4.044,21.447,5.975,33.24,5.975s24.036-1.931,33.24-5.975v10.08c-0.979,2.54-12.434,9.008-33.24,9.008
		c-4.143,0-7.5,3.358-7.5,7.5c0,4.143,3.357,7.5,7.5,7.5c11.793,0,24.036-1.931,33.24-5.975v7.077
		c-0.979,2.539-12.434,9.008-33.24,9.008c-4.143,0-7.5,3.357-7.5,7.5s3.357,7.5,7.5,7.5c11.793,0,24.036-1.931,33.24-5.975v7.077
		c-0.979,2.54-12.434,9.008-33.24,9.008c-4.143,0-7.5,3.357-7.5,7.5c0,4.143,3.357,7.5,7.5,7.5c11.793,0,24.036-1.931,33.24-5.975
		v7.077c-0.979,2.539-12.434,9.008-33.24,9.008c-4.143,0-7.5,3.357-7.5,7.5c0,4.143,3.357,7.5,7.5,7.5
		c11.793,0,24.036-1.931,33.24-5.975v7.077c-0.979,2.54-12.434,9.008-33.24,9.008c-4.143,0-7.5,3.357-7.5,7.5
		c0,4.143,3.357,7.5,7.5,7.5c11.793,0,24.036-1.931,33.24-5.975v2.685L103.307,202.73z M136.547,15
		c20.505,0,31.929,6.282,33.191,8.896c-1.263,2.613-12.687,8.896-33.191,8.896c-20.506,0-31.929-6.282-33.191-8.896
		C104.618,21.282,116.041,15,136.547,15z M55.066,15c20.505,0,31.928,6.282,33.191,8.896c-1.264,2.613-12.687,8.896-33.191,8.896
		c-20.506,0-31.93-6.282-33.192-8.896C23.137,21.282,34.561,15,55.066,15z M21.825,205.562V41.816
		c9.204,4.044,21.448,5.975,33.241,5.975c11.793,0,24.035-1.931,33.24-5.975v10.08c-0.978,2.54-12.433,9.008-33.24,9.008
		c-4.142,0-7.5,3.358-7.5,7.5c0,4.143,3.358,7.5,7.5,7.5c11.793,0,24.035-1.931,33.24-5.975v7.077
		c-0.98,2.541-12.437,9.008-33.24,9.008c-4.142,0-7.5,3.357-7.5,7.5s3.358,7.5,7.5,7.5c11.793,0,24.035-1.931,33.24-5.975v7.077
		c-0.978,2.54-12.433,9.008-33.24,9.008c-4.142,0-7.5,3.357-7.5,7.5c0,4.143,3.358,7.5,7.5,7.5c11.793,0,24.035-1.931,33.24-5.975
		v7.077c-0.979,2.539-12.436,9.008-33.24,9.008c-4.142,0-7.5,3.357-7.5,7.5c0,4.143,3.358,7.5,7.5,7.5
		c11.793,0,24.035-1.931,33.24-5.975v7.077c-0.979,2.54-12.436,9.008-33.24,9.008c-4.142,0-7.5,3.357-7.5,7.5
		c0,4.143,3.358,7.5,7.5,7.5c11.793,0,24.035-1.931,33.24-5.975v7.077c-0.978,2.539-12.433,9.008-33.24,9.008
		c-4.142,0-7.5,3.357-7.5,7.5s3.358,7.5,7.5,7.5c11.793,0,24.035-1.931,33.24-5.975v10.08c-0.979,2.54-12.435,9.008-33.24,9.008
		C34.262,214.569,22.805,208.102,21.825,205.562z M91.602,260.782c-8.346-18.697-7.281-31.68-5.415-33.926
		c3.678,0.23,13.835,9.143,21.661,26.674c8.346,18.698,7.279,31.682,5.412,33.926C109.584,287.228,99.428,278.315,91.602,260.782z
		 M279.163,213.464l-149.585,66.768c-0.001-0.578-0.009-1.165-0.031-1.773c-0.343-9.225-3.186-20.249-8.002-31.041
		c-4.425-9.912-11.176-20.822-19.021-27.912l0.092-0.041c0.039-0.017,0.076-0.033,0.114-0.051l9.015-4.023
		c0.024-0.002,0.049-0.002,0.074-0.002c2.832,0,13.295,7.854,21.7,26.684c1.245,2.79,3.983,4.445,6.853,4.445
		c1.021,0,2.061-0.21,3.053-0.653c3.783-1.688,5.48-6.123,3.792-9.905c-4.817-10.793-11.126-20.269-17.763-26.684
		c-0.438-0.423-0.87-0.821-1.3-1.208l6.52-2.91c2.685-0.144,13.294,7.679,21.776,26.683c1.245,2.789,3.983,4.444,6.852,4.444
		c1.021,0,2.061-0.21,3.054-0.653c3.782-1.688,5.479-6.123,3.791-9.906c-4.807-10.769-11.56-21.162-19.004-27.919l6.462-2.884
		c0.023-0.001,0.049-0.002,0.074-0.002c2.83,0,13.293,7.854,21.699,26.685c1.245,2.789,3.983,4.444,6.852,4.444
		c1.021,0,2.061-0.21,3.054-0.653c3.782-1.689,5.48-6.123,3.791-9.906c-4.807-10.768-11.559-21.16-19.004-27.918l6.462-2.884
		c0.023-0.001,0.049-0.002,0.074-0.002c2.832,0,13.296,7.853,21.7,26.683c1.245,2.79,3.983,4.445,6.853,4.445
		c1.021,0,2.06-0.21,3.053-0.653c3.782-1.688,5.48-6.123,3.792-9.905c-4.816-10.792-11.125-20.269-17.763-26.685
		c-0.438-0.423-0.87-0.821-1.299-1.208l6.52-2.91c0.025-0.001,0.049-0.002,0.074-0.002c2.831,0,13.295,7.854,21.7,26.684
		c1.245,2.789,3.983,4.444,6.853,4.444c1.021,0,2.061-0.21,3.054-0.653c3.782-1.689,5.48-6.123,3.791-9.906
		c-4.817-10.792-11.127-20.268-17.764-26.684c-0.438-0.423-0.87-0.821-1.3-1.208l6.521-2.91c0.023-0.001,0.049-0.002,0.073-0.002
		c2.832,0,13.297,7.855,21.702,26.684c1.245,2.789,3.983,4.444,6.852,4.444c1.021,0,2.061-0.21,3.054-0.653
		c3.782-1.689,5.479-6.123,3.791-9.906c-4.817-10.792-11.127-20.268-17.766-26.684c-0.438-0.423-0.869-0.82-1.299-1.207l9.264-4.135
		c0.023-0.002,0.049-0.002,0.073-0.002c2.831,0,13.295,7.854,21.701,26.684C282.319,198.439,281.083,211.535,279.163,213.464z"/>
</g>
<g>
</g>
<g>
</g>
<g>
</g>
<g>
</g>
<g>
</g>
<g>
</g>
<g>
</g>
<g>
</g>
<g>
</g>
<g>
</g>
<g>
</g>
<g>
</g>
<g>
</g>
<g>
</g>
<g>
</g>
</svg>
