<?xml version="1.0" encoding="iso-8859-1"?>
<!-- Generator: Adobe Illustrator 18.0.0, SVG Export Plug-In . SVG Version: 6.00 Build 0)  -->
<!DOCTYPE svg PUBLIC "-//W3C//DTD SVG 1.1//EN" "http://www.w3.org/Graphics/SVG/1.1/DTD/svg11.dtd">
<svg version="1.1" id="Capa_1" xmlns="http://www.w3.org/2000/svg" xmlns:xlink="http://www.w3.org/1999/xlink" x="0px" y="0px"
	 viewBox="0 0 413.36 413.36" style="enable-background:new 0 0 413.36 413.36;" xml:space="preserve">
<g>
	<path d="M335.99,398.36h-64.121c-8.768,0-15.898-7.132-15.898-15.897v-33.189c0-17.036-13.861-30.896-30.898-30.896
		c0,0,0,0-0.002,0c-8.252,0-16.01,3.214-21.846,9.049c-5.836,5.836-9.049,13.596-9.049,21.849v33.188
		c0,4.247-1.654,8.239-4.656,11.242c-3.002,3.002-6.995,4.655-11.241,4.655c-8.766,0-15.898-7.132-15.898-15.897V363.7
		c8.714-2.905,15.003-10.823,15.086-20.141l1.896-31.985c8.754-7.063,14.178-17.741,14.487-29.24
		c0.021-0.235,0.035-253.422,0.035-253.422C193.885,12.97,180.916,0,164.974,0h-9.946c-4.143,0-7.5,3.358-7.5,7.5v196.88
		L111.47,11.437c-0.371-1.985-1.527-3.737-3.206-4.859c-1.68-1.121-3.74-1.519-5.717-1.101l-9.731,2.056
		c-7.556,1.596-14.038,6.039-18.252,12.511c-4.197,6.445-5.645,14.134-4.079,21.661c0,0,46.506,247.578,46.518,247.633
		c1.871,8.853,6.739,16.499,13.393,21.965l1.909,32.22c0.065,9.33,6.356,17.264,15.077,20.175v18.768
		c0,17.036,13.86,30.897,30.898,30.897c0,0,0,0,0.001,0c8.253,0,16.011-3.214,21.847-9.049c5.834-5.836,9.049-13.596,9.049-21.849
		v-33.188c0-4.247,1.652-8.239,4.656-11.242c3.002-3.002,6.994-4.655,11.24-4.655c8.766,0,15.898,7.132,15.898,15.896v33.189
		c0,17.036,13.861,30.897,30.898,30.897h64.121c4.143,0,7.5-3.357,7.5-7.5C343.49,401.719,340.133,398.36,335.99,398.36z
		 M164.974,15c7.671,0,13.911,6.241,13.911,13.912v221.792c-4.743-3.705-10.332-6.323-16.357-7.521V15H164.974z M131.696,286.314
		c0,0-46.504-247.564-46.516-247.619c-0.768-3.636-0.143-7.399,1.953-10.467c4.537-6.638,11.002-6.488,11.002-6.488l43.032,230.263
		c0.371,1.985,1.527,3.737,3.206,4.858c1.681,1.123,3.742,1.522,5.717,1.102c1.639-0.346,3.308-0.521,4.963-0.521
		c11.189,0,20.993,7.963,23.311,18.933c2.718,12.872-6.182,28.796-23.374,28.796C143.827,305.169,133.917,297.2,131.696,286.314z
		 M155.04,349.89h-0.307c-4.028,0-7.318-2.827-7.426-6.338c0.004-0.207-1.426-24.49-1.426-24.49
		c2.938,0.719,5.988,1.107,9.109,1.107c4.623,0,8.618-0.979,8.897-1.045c0,0-1.426,24.193-1.423,24.387
		C162.381,347.04,159.083,349.89,155.04,349.89z"/>
</g>
<g>
</g>
<g>
</g>
<g>
</g>
<g>
</g>
<g>
</g>
<g>
</g>
<g>
</g>
<g>
</g>
<g>
</g>
<g>
</g>
<g>
</g>
<g>
</g>
<g>
</g>
<g>
</g>
<g>
</g>
</svg>
