<?xml version="1.0" encoding="iso-8859-1"?>
<!-- Generator: Adobe Illustrator 18.0.0, SVG Export Plug-In . SVG Version: 6.00 Build 0)  -->
<!DOCTYPE svg PUBLIC "-//W3C//DTD SVG 1.1//EN" "http://www.w3.org/Graphics/SVG/1.1/DTD/svg11.dtd">
<svg version="1.1" id="Capa_1" xmlns="http://www.w3.org/2000/svg" xmlns:xlink="http://www.w3.org/1999/xlink" x="0px" y="0px"
	 viewBox="0 0 394.542 394.542" style="enable-background:new 0 0 394.542 394.542;" xml:space="preserve">
<g>
	<path d="M235.69,88.235c2.426-3.234,3.899-7.416,3.899-11.986V40.266C239.589,18.063,220.605,0,197.27,0
		c-23.334,0-42.319,18.063-42.319,40.266v35.983c0,4.57,1.473,8.752,3.899,11.986c-10.27,10.399-16.184,24.596-16.184,39.739
		v244.803c0,12,9.344,21.764,20.829,21.764h67.549c11.485,0,20.829-9.763,20.829-21.764V127.975
		C251.874,112.831,245.96,98.634,235.69,88.235z M171.368,79.788c-0.403-0.151-1.416-1.427-1.416-3.539
		c0-2.112,1.013-3.387,1.322-3.525l51.899-0.014c0.403,0.151,1.416,1.427,1.416,3.539c0,2.058-0.961,3.321-1.384,3.525
		L171.368,79.788z M205.138,57.725h-15.735V46.569h15.735V57.725z M197.27,15c15.064,0,27.319,11.334,27.319,25.266v17.458
		c-0.438-0.04-4.451,0-4.451,0V39.069c0-4.142-3.358-7.5-7.5-7.5h-30.735c-4.142,0-7.5,3.358-7.5,7.5v18.655c0,0-4.014-0.04-4.451,0
		V40.266C169.952,26.334,182.207,15,197.27,15z M157.667,203.482h48.393v67.351h-48.393V203.482z M236.874,372.778
		c0,3.729-2.615,6.764-5.829,6.764h-67.549c-3.214,0-5.829-3.034-5.829-6.764v-86.944h55.893c4.142,0,7.5-3.358,7.5-7.5v-82.351
		c0-4.142-3.358-7.5-7.5-7.5h-55.893v-60.508c0-13.245,6.1-25.496,16.421-33.2l46.368,0.003
		c10.319,7.704,16.418,19.954,16.418,33.197V372.778z"/>
</g>
<g>
</g>
<g>
</g>
<g>
</g>
<g>
</g>
<g>
</g>
<g>
</g>
<g>
</g>
<g>
</g>
<g>
</g>
<g>
</g>
<g>
</g>
<g>
</g>
<g>
</g>
<g>
</g>
<g>
</g>
</svg>
