<?xml version="1.0" encoding="iso-8859-1"?>
<!-- Generator: Adobe Illustrator 18.0.0, SVG Export Plug-In . SVG Version: 6.00 Build 0)  -->
<!DOCTYPE svg PUBLIC "-//W3C//DTD SVG 1.1//EN" "http://www.w3.org/Graphics/SVG/1.1/DTD/svg11.dtd">
<svg version="1.1" id="Capa_1" xmlns="http://www.w3.org/2000/svg" xmlns:xlink="http://www.w3.org/1999/xlink" x="0px" y="0px"
	 viewBox="0 0 325.635 325.635" style="enable-background:new 0 0 325.635 325.635;" xml:space="preserve">
<g>
	<path d="M324.427,80.302c-4.756-23.868-23.145-44.389-54.655-60.995c-2.215-1.167-4.901-1.696-7.011-0.347
		c-1.264,0.808-2.267,1.775-3.821,5.336c-0.899,2.513-10.063,24.309-78.406,98.824c-8.037,8.762-15.285,17.003-22.293,24.972
		c-18.632,21.183-33.348,37.915-47.27,46.503c-7.434,4.586-14.329,6.912-20.494,6.912c-6.395,0-11.849-2.524-16.212-7.504
		c-1.718-1.961-4.331-2.89-6.903-2.451c-4.531,0.773-44.558,8.275-58.502,30.702c-9.606,15.451-8.845,27.48-8.845,27.698
		c0,5.697,1.786,18.617,8.478,30.906c8.352,15.335,21.442,24.583,37.856,26.599c0.303,0.038,95.595,0,95.912,0
		c6.195,0,27.086-2.467,42.739-61.783c6.292-23.842,16.333-62.579,49.25-86.034c2.237,2.989,4.542,11.285,4.72,20.11
		c0.013,0.869,1.288,87.297,2.716,120.52c0.173,4.013,3.477,7.186,7.493,7.186h21.66c2.007,0,3.931-0.813,5.34-2.242
		c1.409-1.429,2.187-3.363,2.16-5.371c-0.341-24.681-0.295-92.37,3.961-108.962c8.078-31.494,26.496-51.989,26.824-52.35
		c0.038-0.041,0.064-0.087,0.101-0.129c0.047-0.054,0.102-0.101,0.148-0.157C310.248,137.189,330.748,112.023,324.427,80.302z
		 M142.331,292.444c-0.277-0.05-0.208-0.01-0.628-0.01h-93.96c-15.88-2.137-24.372-13.537-28.692-24.253
		c19.128,1.843,44.722,2.922,70.183,2.922c0.001,0,0.001,0,0.002,0c22.898,0,43.885-0.881,59.091-2.481
		c6.07-0.639,11.053-1.366,15.165-2.182C154.67,290.65,143.749,292.332,142.331,292.444z M267.77,187.154
		c-4.721,18.404-4.673,82.903-4.506,105.293h-6.87c-1.304-36.822-2.414-112.109-2.426-112.941
		c-0.068-3.84-0.755-18.133-6.868-27.527c7.585-3.652,24.019-10.543,41.789-11.581C282.045,150.542,273.025,166.664,267.77,187.154z
		 M300.063,125.527c-2.204-0.177-4.452-0.266-6.72-0.266c-30.043,0-56.992,15.323-58.073,15.946
		c-45.206,25.566-57.942,74.43-64.785,100.682c-0.752,2.884-1.421,5.453-2.059,7.724c-5.794,2.77-30.355,6.49-79.193,6.49
		c-26.929,0-54.55-1.218-73.51-3.273c-1.975-2.554-0.897-11.878,5.915-22.721c7.948-12.654,32.022-20.302,44.469-23.026
		c6.759,6.181,15.102,9.423,24.371,9.422c8.987-0.001,18.532-3.077,28.368-9.145c15.83-9.765,31.2-27.24,50.658-49.363
		c6.959-7.912,14.154-16.092,22.085-24.74c52.055-56.755,71.116-84.279,78.092-96.845c23.022,13.519,36.468,29.196,40.007,46.676
		C313.54,102.116,304.472,118.812,300.063,125.527z"/>
</g>
<g>
</g>
<g>
</g>
<g>
</g>
<g>
</g>
<g>
</g>
<g>
</g>
<g>
</g>
<g>
</g>
<g>
</g>
<g>
</g>
<g>
</g>
<g>
</g>
<g>
</g>
<g>
</g>
<g>
</g>
</svg>
