<?xml version="1.0" encoding="iso-8859-1"?>
<!-- Generator: Adobe Illustrator 18.0.0, SVG Export Plug-In . SVG Version: 6.00 Build 0)  -->
<!DOCTYPE svg PUBLIC "-//W3C//DTD SVG 1.1//EN" "http://www.w3.org/Graphics/SVG/1.1/DTD/svg11.dtd">
<svg version="1.1" id="Capa_1" xmlns="http://www.w3.org/2000/svg" xmlns:xlink="http://www.w3.org/1999/xlink" x="0px" y="0px"
	 viewBox="0 0 302.188 302.188" style="enable-background:new 0 0 302.188 302.188;" xml:space="preserve">
<g>
	<g>
		<g>
			<g>
				<path d="M85.527,44.996c-2.621,0-5.165-1.375-6.542-3.822c-2.032-3.609-0.754-8.182,2.855-10.215
					c9.247-5.205,24.396-8.492,38.587-8.404c4.142,0.029,7.476,3.41,7.447,7.553c-0.029,4.123-3.382,7.447-7.499,7.447
					c-0.2,0.002-0.397-0.002-0.596-0.002c-13.101,0-25,3.336-30.58,6.477C88.037,44.686,86.773,44.996,85.527,44.996z"/>
			</g>
			<g>
				<path d="M58.276,124.272c-1.33,0-2.676-0.354-3.895-1.096c-3.537-2.156-4.658-6.771-2.502-10.309
					c9.892-16.234,41.576-23.264,68.561-23.035c4.142,0.035,7.471,3.422,7.435,7.564c-0.035,4.119-3.386,7.436-7.498,7.436
					c-0.022,0-0.044,0-0.066,0c-28.6-0.256-50.76,7.859-55.623,15.84C63.275,122.99,60.806,124.272,58.276,124.272z"/>
			</g>
			<g>
				<path d="M35.932,226.709c-1.267,0-2.55-0.322-3.728-0.998c-3.592-2.063-4.832-6.646-2.77-10.238
					c12.879-22.432,54.959-32.107,91.009-31.811c4.142,0.037,7.469,3.426,7.431,7.568c-0.038,4.117-3.388,7.432-7.498,7.432
					c-0.023,0-0.046,0-0.07,0c-36.26-0.381-69.726,10.105-77.864,24.279C41.056,225.358,38.53,226.709,35.932,226.709z"/>
			</g>
		</g>
		<g>
			<path d="M296.668,229.867c-3.484-3.527-8.843-6.803-15.097-9.357c6.361-7.932,10.917-17.355,8.805-25.438
				c-1.209-4.617-4.364-8.211-8.492-10.027c-0.231-0.531-0.493-1.057-0.787-1.572c-2.722-4.783-7.821-7.637-13.642-7.637
				c-1.7,0-3.48,0.24-5.292,0.713c-4.821,1.262-10.365,4.285-15.727,8.455c-2.482-6.32-5.705-11.75-9.206-15.293
				c-4.628-4.688-9.301-5.672-12.405-5.672c-1.283,0-2.566,0.166-3.817,0.492c-1.883,0.494-3.586,1.287-5.075,2.352
				c-1.813-0.199-3.701-0.057-5.592,0.438c-2.331,0.611-5.957,2.188-8.738,6.178c-8.508-4.158-18.063-7.629-28.367-10.303
				c26.023-9.322,42.901-25.471,42.901-44.188c0-20.402-20.056-37.752-50.146-46.539c1.21-0.541,2.4-1.1,3.55-1.688
				c14.852-7.606,23.031-18.295,23.031-30.102c0-11.807-8.18-22.498-23.031-30.104c-13.258-6.789-30.719-10.527-49.167-10.527
				c-18.448,0-35.909,3.738-49.167,10.527C56.355,18.182,48.176,28.873,48.176,40.68c0,11.807,8.179,22.496,23.031,30.102
				c1.148,0.588,2.336,1.148,3.546,1.689c-30.088,8.787-50.142,26.135-50.142,46.537c0,18.686,16.831,34.805,42.778,44.137
				C27.157,173.6,0,195.764,0,222.006c0,36.619,52.875,65.303,120.374,65.303c21.379,0,42.171-2.971,60.429-8.607
				c1.134,0.988,2.402,1.818,3.795,2.43c0.231,0.533,0.495,1.059,0.789,1.574c2.723,4.783,7.821,7.637,13.639,7.637
				c1.701,0,3.483-0.24,5.296-0.715c4.822-1.26,10.365-4.283,15.725-8.451c2.482,6.32,5.706,11.75,9.209,15.295
				c4.628,4.685,9.3,5.668,12.403,5.668c1.283,0,2.565-0.164,3.813-0.49c1.885-0.494,3.589-1.287,5.08-2.354
				c1.811,0.199,3.709,0.055,5.585-0.436c3.296-0.861,9.186-3.623,11.608-12.455c1.319-4.807,1.473-11.123,0.542-17.852
				c3.05,0.459,6.041,0.697,8.865,0.697c0.001,0,0.001,0,0.002,0c3.38,0,6.402-0.342,8.982-1.018
				c9.623-2.516,13.085-9.811,13.126-15.313c0.003-0.592-0.025-1.174-0.084-1.75c1.127-1.496,1.967-3.193,2.469-5.027
				C302.549,242.858,303.101,236.373,296.668,229.867z M63.176,40.68c0-12.123,23.49-25.631,57.198-25.631
				s57.198,13.508,57.198,25.631c0,12.123-23.49,25.631-57.198,25.631S63.176,52.803,63.176,40.68z M61.381,144.291
				c-13.835-7.084-21.77-16.301-21.77-25.283c0-8.984,7.935-18.199,21.77-25.283c15.633-8.006,36.583-12.414,58.993-12.414
				c22.41,0,43.36,4.408,58.993,12.414c13.835,7.084,21.77,16.299,21.77,25.283c0,8.982-7.935,18.199-21.77,25.283
				c-15.633,8.006-36.584,12.414-58.993,12.414S77.014,152.297,61.381,144.291z M15,222.006c0-27.266,48.255-50.301,105.374-50.301
				c29.307,0,57.126,5.996,77.247,16.549c-0.067,2.945,0.124,6.107,0.575,9.371c-3.052-0.457-6.044-0.697-8.868-0.697
				c-3.383,0-6.405,0.344-8.984,1.018c-9.632,2.52-13.09,9.82-13.123,15.313c-0.003,0.592,0.025,1.178,0.084,1.752
				c-2.711,3.605-3.703,8.283-2.495,12.902c2.112,8.074,10.695,14.061,20.117,17.861c-3.883,4.9-8.293,11.824-9.17,18.781
				c-16.685,5.076-35.725,7.754-55.383,7.754C63.255,272.309,15,249.274,15,222.006z M283.469,246.901
				c-0.472,1.947-0.228,4.014,0.784,5.742c0,0.002,0.011,0.057,0.014,0.104c-0.023,0.17-0.612,0.633-1.923,0.975
				c-0.923,0.242-2.571,0.529-5.189,0.529h-0.001c-4.972,0-10.973-1.063-16.465-2.914c-2.688-0.906-5.651-0.219-7.667,1.773
				c-2.016,1.99-2.736,4.949-1.864,7.645c3.002,9.273,3.205,17.738,2.122,21.682c-0.4,1.461-0.874,1.895-0.936,1.91
				c-0.042,0.012-2.456-1.641-5.94-0.795c-3.665,0.891-4.688,3.574-4.727,3.586c-0.008,0.002-0.016,0.002-0.019,0.002
				c-0.113,0-0.74-0.205-1.733-1.211c-2.873-2.906-6.841-10.389-8.764-19.947c-0.559-2.777-2.636-5.004-5.368-5.752
				c-0.656-0.182-1.323-0.268-1.984-0.268c-2.092,0-4.126,0.877-5.568,2.477c-6.528,7.234-13.729,11.766-17.714,12.678
				c-1.581,0.363-2.192-0.008-2.189-0.043c0.036-2.004-0.74-3.93-2.131-5.371c-2.354-2.441-5.574-2.34-5.588-2.393
				c-0.457-1.744,2.03-7.723,7.885-14.402c1.6-1.824,3.33-3.564,5.141-5.17c2.121-1.883,2.999-4.799,2.271-7.537
				c-0.729-2.74-2.939-4.842-5.714-5.416c-20.102-4.148-20.898-10.773-20.907-10.771c0.021-0.02,2.769-1.285,3.72-4.73
				c0.533-1.932,0.23-4.016-0.783-5.746c0,0-0.011-0.055-0.014-0.105c0.025-0.17,6.808-5.293,23.579,1.412
				c2.63,1.053,5.65,0.221,7.666-1.771c2.016-1.992,2.736-4.949,1.864-7.645c-3.002-9.275-3.205-17.74-2.124-21.68
				c0.375-1.367,0.841-1.889,0.933-1.914c0.044-0.012,0.081-0.019,0.109-0.023c0.001,0,0.003,0.002,0.005,0.002
				c1.738,1.063,3.857,1.328,5.828,0.816c1.945-0.508,3.627-1.813,4.629-3.555c0.03-0.01,0.069-0.021,0.119-0.033
				c0.113,0,0.739,0.205,1.732,1.211c2.873,2.908,6.841,10.391,8.764,19.947c0.559,2.777,2.636,5.004,5.368,5.752
				c2.733,0.754,5.655-0.104,7.553-2.207c6.531-7.238,13.859-11.328,17.716-12.682c1.275-0.447,2.191,0.012,2.188,0.045
				c-0.036,2.004,0.732,3.939,2.132,5.375c1.4,1.434,5.518,2.271,5.534,2.271c0.016,0.021,3.025,5.676-12.969,19.676
				c-2.137,1.869-3.045,4.779-2.335,7.529c0.71,2.75,2.913,4.863,5.689,5.457c9.515,2.041,16.933,6.094,19.802,8.998
				c0.992,1.004,1.21,1.664,1.189,1.748C287.185,242.166,284.313,243.416,283.469,246.901z"/>
			<g>
				<path d="M233.246,256.508c-2.326,0-4.641-0.348-6.879-1.035c-12.343-3.791-19.3-16.916-15.511-29.258
					c3.039-9.896,12.033-16.547,22.381-16.547c2.326,0,4.641,0.35,6.878,1.035c12.343,3.793,19.3,16.918,15.51,29.26
					C252.585,249.86,243.591,256.508,233.246,256.508z M233.237,224.668c-3.717,0-6.948,2.391-8.041,5.949
					c-1.362,4.438,1.139,9.154,5.574,10.518c0.809,0.248,1.643,0.373,2.475,0.373c3.716,0,6.946-2.391,8.04-5.949
					c1.361-4.436-1.139-9.152-5.574-10.516C234.902,224.795,234.069,224.668,233.237,224.668z"/>
			</g>
		</g>
	</g>
</g>
<g>
</g>
<g>
</g>
<g>
</g>
<g>
</g>
<g>
</g>
<g>
</g>
<g>
</g>
<g>
</g>
<g>
</g>
<g>
</g>
<g>
</g>
<g>
</g>
<g>
</g>
<g>
</g>
<g>
</g>
</svg>
