<?xml version="1.0" encoding="iso-8859-1"?>
<!-- Generator: Adobe Illustrator 18.0.0, SVG Export Plug-In . SVG Version: 6.00 Build 0)  -->
<!DOCTYPE svg PUBLIC "-//W3C//DTD SVG 1.1//EN" "http://www.w3.org/Graphics/SVG/1.1/DTD/svg11.dtd">
<svg version="1.1" id="Capa_1" xmlns="http://www.w3.org/2000/svg" xmlns:xlink="http://www.w3.org/1999/xlink" x="0px" y="0px"
	 viewBox="0 0 331.666 331.666" style="enable-background:new 0 0 331.666 331.666;" xml:space="preserve">
<g>
	<g>
		<path d="M146.885,85.25h-3.188V48.402c0-4.143-3.357-7.5-7.5-7.5h-35.057c-4.143,0-7.5,3.357-7.5,7.5V85.25h-3.188
			c-4.143,0-7.5,3.357-7.5,7.5v231.416c0,4.143,3.357,7.5,7.5,7.5h56.432c4.143,0,7.5-3.357,7.5-7.5V92.75
			C154.385,88.607,151.027,85.25,146.885,85.25z M108.641,55.902h20.057v7.174h-20.057V55.902z M108.641,78.076h20.057v7.174
			h-20.057V78.076z M139.385,316.666H97.953V100.25h41.432V316.666z"/>
		<path d="M241.213,199.225h-9.506V50.489c1.827-1.368,3.016-3.543,3.016-6.002V21.727C234.723,9.746,224.977,0,212.997,0
			c-11.98,0-21.726,9.746-21.726,21.727v22.761c0,2.459,1.189,4.634,3.016,6.002v148.735h-9.506c-4.143,0-7.5,3.357-7.5,7.5v117.441
			c0,4.143,3.357,7.5,7.5,7.5h56.432c4.143,0,7.5-3.357,7.5-7.5V206.725C248.713,202.582,245.355,199.225,241.213,199.225z
			 M206.271,21.727c0-3.709,3.017-6.727,6.726-6.727c3.709,0,6.725,3.018,6.725,6.727v15.261h-13.451V21.727z M209.287,51.987h7.42
			v147.237h-7.42V51.987z M233.713,214.225v15.362h-41.432v-15.362H233.713z M192.281,316.666v-72.079h41.432v72.079H192.281z"/>
	</g>
</g>
<g>
</g>
<g>
</g>
<g>
</g>
<g>
</g>
<g>
</g>
<g>
</g>
<g>
</g>
<g>
</g>
<g>
</g>
<g>
</g>
<g>
</g>
<g>
</g>
<g>
</g>
<g>
</g>
<g>
</g>
</svg>
