<?xml version="1.0" encoding="iso-8859-1"?>
<!-- Generator: Adobe Illustrator 18.0.0, SVG Export Plug-In . SVG Version: 6.00 Build 0)  -->
<!DOCTYPE svg PUBLIC "-//W3C//DTD SVG 1.1//EN" "http://www.w3.org/Graphics/SVG/1.1/DTD/svg11.dtd">
<svg version="1.1" id="Capa_1" xmlns="http://www.w3.org/2000/svg" xmlns:xlink="http://www.w3.org/1999/xlink" x="0px" y="0px"
	 viewBox="0 0 367.8 367.8" style="enable-background:new 0 0 367.8 367.8;" xml:space="preserve">
<g>
	<g>
		<g>
			<path d="M99.896,133.122c-4.142,0-7.5-3.358-7.5-7.5c0-50.456,41.049-91.504,91.504-91.504c4.142,0,7.5,3.358,7.5,7.5
				c0,4.143-3.358,7.5-7.5,7.5c-42.185,0-76.504,34.319-76.504,76.504C107.396,129.764,104.038,133.122,99.896,133.122z"/>
		</g>
		<path d="M342.184,100.005c-11.517,0-21.28,7.64-24.495,18.117h-14.175C299.629,55.515,247.469,5.767,183.9,5.767
			c-63.569,0-115.729,49.748-119.614,112.355H50.111c-3.215-10.477-12.978-18.117-24.495-18.117C11.491,100.005,0,111.497,0,125.623
			c0,14.125,11.491,25.617,25.616,25.617c4.467,0,8.669-1.152,12.33-3.171c9.83,64.173,61.117,114.871,125.578,123.808v75.157
			h-29.07c-4.142,0-7.5,3.358-7.5,7.5c0,4.142,3.358,7.5,7.5,7.5h98.893c4.142,0,7.5-3.358,7.5-7.5c0-4.142-3.358-7.5-7.5-7.5
			h-29.07v-75.157c64.46-8.936,115.748-59.635,125.578-123.808c3.661,2.019,7.863,3.171,12.33,3.171
			c14.125,0,25.616-11.492,25.616-25.617C367.8,111.497,356.309,100.005,342.184,100.005z M25.616,136.239
			c-5.854,0-10.616-4.763-10.616-10.617c0-5.854,4.762-10.617,10.616-10.617c5.854,0,10.617,4.763,10.617,10.617
			C36.233,131.477,31.471,136.239,25.616,136.239z M183.9,20.767c57.817,0,104.855,47.038,104.855,104.855
			c0,57.818-47.038,104.856-104.855,104.856c-57.818,0-104.856-47.038-104.856-104.856C79.044,67.805,126.082,20.767,183.9,20.767z
			 M189.276,347.034h-10.752v-73.852c1.785,0.064,3.576,0.108,5.377,0.108c1.8,0,3.59-0.044,5.375-0.108V347.034z M183.9,258.289
			c-70.635,0-128.548-55.491-132.451-125.167h12.836c3.885,62.608,56.045,112.356,119.614,112.356
			c63.569,0,115.729-49.749,119.614-112.356h12.836C312.448,202.798,254.535,258.289,183.9,258.289z M342.184,136.239
			c-5.855,0-10.617-4.763-10.617-10.617c0-5.854,4.763-10.617,10.617-10.617c5.854,0,10.616,4.763,10.616,10.617
			C352.8,131.477,348.038,136.239,342.184,136.239z"/>
	</g>
</g>
<g>
</g>
<g>
</g>
<g>
</g>
<g>
</g>
<g>
</g>
<g>
</g>
<g>
</g>
<g>
</g>
<g>
</g>
<g>
</g>
<g>
</g>
<g>
</g>
<g>
</g>
<g>
</g>
<g>
</g>
</svg>
