<?xml version="1.0" encoding="iso-8859-1"?>
<!-- Generator: Adobe Illustrator 18.0.0, SVG Export Plug-In . SVG Version: 6.00 Build 0)  -->
<!DOCTYPE svg PUBLIC "-//W3C//DTD SVG 1.1//EN" "http://www.w3.org/Graphics/SVG/1.1/DTD/svg11.dtd">
<svg version="1.1" id="Capa_1" xmlns="http://www.w3.org/2000/svg" xmlns:xlink="http://www.w3.org/1999/xlink" x="0px" y="0px"
	 viewBox="0 0 327.93 327.93" style="enable-background:new 0 0 327.93 327.93;" xml:space="preserve">
<g>
	<g>
		<path d="M217.594,244.92c-17.635,0-31.982,14.348-31.982,31.982c0,17.636,14.348,31.982,31.982,31.982
			s31.982-14.347,31.982-31.982C249.576,259.267,235.228,244.92,217.594,244.92z M217.594,293.885
			c-9.363,0-16.982-7.618-16.982-16.982c0-9.364,7.619-16.982,16.982-16.982c9.365,0,16.982,7.618,16.982,16.982
			C234.576,286.267,226.959,293.885,217.594,293.885z"/>
		<path d="M110.336,244.92c-17.635,0-31.982,14.348-31.982,31.982c0,17.636,14.348,31.982,31.982,31.982
			s31.982-14.347,31.982-31.982C142.318,259.267,127.971,244.92,110.336,244.92z M110.336,293.885
			c-9.365,0-16.982-7.618-16.982-16.982c0-9.364,7.617-16.982,16.982-16.982c9.363,0,16.982,7.618,16.982,16.982
			C127.318,286.267,119.699,293.885,110.336,293.885z"/>
		<path d="M217.594,225.875c-0.617,0-2.432,0.018-2.432,0.018c-16.408-1.409-21.262-29.547-21.652-32.01L186.5,91.404V60.188
			c0-0.695-0.096-1.388-0.287-2.057L171.184,5.442C170.266,2.222,167.322,0,163.973,0c-3.35,0-6.295,2.222-7.213,5.442
			L141.73,58.131c-0.191,0.669-0.287,1.361-0.287,2.057c0,0,0,31.566,0,31.586c0.475,31.142,1.861,34.48,2.383,35.737
			c0.078,0.186,0.188,0.38,0.277,0.568c0,0-9.652,65.59-9.656,65.621c-0.043,0.313-4.693,31.285-22.195,32.221
			c-0.637-0.023-1.273-0.046-1.916-0.046c-28.137,0-51.027,22.891-51.027,51.027c0,28.137,22.891,51.027,51.027,51.027
			c26.295,0,48.107-19.692,50.762-45.815c0-0.009,0.002-0.017,0.004-0.025l2.859-27.363c0.123,1.161,2.76,26.078,2.773,26.175
			c2.053,26.384,24.361,47.029,50.859,47.029c28.137,0,51.027-22.891,51.027-51.027C268.621,248.766,245.73,225.875,217.594,225.875
			z M156.443,61.236l7.529-26.395l7.527,26.395v22.923h-15.057V61.236z M110.336,312.93c-19.865,0-36.027-16.162-36.027-36.027
			s16.162-36.027,36.027-36.027c0.588,0,2.33,0.05,2.441,0.045c30.127-1.331,36.18-42.579,36.531-45.191l4.986-33.872
			c0.646,6.235,1.373,13.224,2.141,20.614l-10.252,98.059c-0.002,0.006,0,0.011-0.002,0.016c0,0.005-0.002,0.009-0.002,0.014
			C144.324,299.013,128.914,312.93,110.336,312.93z M217.594,312.93c-18.748,0-34.521-14.632-35.912-33.311
			c-0.016-0.189-10.215-97.577-15.266-146.279c-0.191-1.838-1.053-3.541-2.422-4.782c-2.361-2.142-6.074-6.464-6.125-6.533
			c-0.02-0.028-0.051-0.065-0.068-0.093c-0.486-2.897-0.941-12.751-1.201-22.772h15.396c0,0,6.594,96.346,6.615,96.499
			c0.23,1.763,5.986,43.181,35.695,45.212c0.199,0.017,2.709,0.005,3.287,0.005c19.865,0,36.027,16.162,36.027,36.027
			S237.459,312.93,217.594,312.93z"/>
		<path d="M164.707,100.811c-1.979,0-3.91,0.8-5.299,2.2c-1.4,1.39-2.201,3.32-2.201,5.3c0,1.97,0.801,3.91,2.201,5.3
			c1.389,1.4,3.32,2.2,5.299,2.2c1.98,0,3.91-0.8,5.301-2.2c1.4-1.39,2.199-3.33,2.199-5.3c0-1.979-0.799-3.91-2.199-5.3
			C168.617,101.61,166.678,100.811,164.707,100.811z"/>
	</g>
</g>
<g>
</g>
<g>
</g>
<g>
</g>
<g>
</g>
<g>
</g>
<g>
</g>
<g>
</g>
<g>
</g>
<g>
</g>
<g>
</g>
<g>
</g>
<g>
</g>
<g>
</g>
<g>
</g>
<g>
</g>
</svg>
