<?xml version="1.0" encoding="iso-8859-1"?>
<!-- Generator: Adobe Illustrator 18.0.0, SVG Export Plug-In . SVG Version: 6.00 Build 0)  -->
<!DOCTYPE svg PUBLIC "-//W3C//DTD SVG 1.1//EN" "http://www.w3.org/Graphics/SVG/1.1/DTD/svg11.dtd">
<svg version="1.1" id="Capa_1" xmlns="http://www.w3.org/2000/svg" xmlns:xlink="http://www.w3.org/1999/xlink" x="0px" y="0px"
	 viewBox="0 0 371.643 371.643" style="enable-background:new 0 0 371.643 371.643;" xml:space="preserve">
<g>
	<g>
		<path d="M211.943,91.847c0-36.95-30.061-67.012-67.013-67.012c-36.95,0-67.011,30.062-67.011,67.012s30.061,67.011,67.011,67.011
			C181.881,158.857,211.943,128.797,211.943,91.847z M92.919,91.847c0-28.68,23.332-52.012,52.011-52.012
			c28.68,0,52.013,23.332,52.013,52.012c0,28.679-23.333,52.011-52.013,52.011C116.251,143.857,92.919,120.525,92.919,91.847z"/>
		<path d="M152.43,56.521c0-4.143-3.357-7.5-7.5-7.5c-23.613,0-42.824,19.212-42.824,42.826c0,4.143,3.357,7.5,7.5,7.5
			s7.5-3.357,7.5-7.5c0-15.344,12.481-27.826,27.824-27.826C149.073,64.021,152.43,60.663,152.43,56.521z"/>
		<path d="M297.186,228.116c-13.805-13.804-32.158-21.406-51.68-21.406c-12.405,0-24.334,3.081-34.928,8.862
			c-7.827-8.002-16.957-14.434-26.922-19.067c2.349-2.933,3.763-6.644,3.763-10.684c0-4.048-1.419-7.766-3.775-10.7
			c31.352-14.633,53.133-46.455,53.133-83.274C236.778,41.202,195.575,0,144.93,0C94.287,0,53.084,41.202,53.084,91.847
			c0,36.819,21.781,68.642,53.133,83.274c-2.355,2.936-3.773,6.653-3.773,10.7c0,4.048,1.418,7.766,3.774,10.7
			c-31.352,14.633-53.134,46.456-53.134,83.275c0,50.643,41.202,91.846,91.846,91.846c24.831,0,48.41-9.997,65.648-27.622
			c10.596,5.78,22.523,8.861,34.93,8.861c19.521,0,37.874-7.602,51.678-21.405C325.682,302.979,325.682,256.612,297.186,228.116z
			 M295.149,249.65l-79.803,79.804c-0.629-0.384-5.93-3.589-10.912-8.585c-3.323-3.333-6.195-6.994-8.586-10.913l79.818-79.818
			c3.919,2.391,7.584,5.257,10.912,8.586C289.938,242.082,292.786,245.76,295.149,249.65z M172.419,279.796
			c0,12.973,3.376,25.421,9.68,36.37c-9.759,9.992-23.032,15.643-37.169,15.643c-28.679,0-52.011-23.332-52.011-52.012
			s23.332-52.012,52.011-52.012c14.137,0,27.41,5.65,37.168,15.642C175.795,254.376,172.419,266.823,172.419,279.796z
			 M260.831,223.759l-71.361,71.361c-1.342-4.934-2.05-10.073-2.05-15.324c0-15.515,6.043-30.102,17.015-41.072
			c10.971-10.972,25.558-17.014,41.072-17.014C250.757,221.71,255.896,222.418,260.831,223.759z M68.084,91.847
			C68.084,49.474,102.557,15,144.93,15c42.374,0,76.848,34.474,76.848,76.847c0,42.372-34.474,76.845-76.848,76.845
			C102.557,168.691,68.084,134.219,68.084,91.847z M119.573,187.951c-1.174,0-2.129-0.955-2.129-2.13c0-1.175,0.955-2.13,2.129-2.13
			h50.717c1.175,0,2.13,0.955,2.13,2.13c0,1.175-0.955,2.13-2.13,2.13H119.573z M144.93,356.643
			c-42.373,0-76.846-34.473-76.846-76.846c0-42.373,34.473-76.846,76.846-76.846c19.91,0,38.859,7.682,53.101,21.301
			c-1.485,1.191-4.55,3.287-7.048,6.887c-12.375-11.745-28.706-18.354-46.053-18.354c-36.95,0-67.011,30.061-67.011,67.012
			s30.061,67.012,67.011,67.012c17.346,0,33.678-6.609,46.053-18.355c2.649,3.466,5.609,5.654,7.049,6.888
			C183.79,348.961,164.84,356.643,144.93,356.643z M286.579,320.87c-10.97,10.971-25.556,17.012-41.07,17.012
			c-5.252,0-10.391-0.708-15.326-2.05l71.331-71.331C306.79,283.951,301.823,305.626,286.579,320.87z"/>
	</g>
</g>
<g>
</g>
<g>
</g>
<g>
</g>
<g>
</g>
<g>
</g>
<g>
</g>
<g>
</g>
<g>
</g>
<g>
</g>
<g>
</g>
<g>
</g>
<g>
</g>
<g>
</g>
<g>
</g>
<g>
</g>
</svg>
