<?xml version="1.0" encoding="iso-8859-1"?>
<!-- Generator: Adobe Illustrator 18.0.0, SVG Export Plug-In . SVG Version: 6.00 Build 0)  -->
<!DOCTYPE svg PUBLIC "-//W3C//DTD SVG 1.1//EN" "http://www.w3.org/Graphics/SVG/1.1/DTD/svg11.dtd">
<svg version="1.1" id="Capa_1" xmlns="http://www.w3.org/2000/svg" xmlns:xlink="http://www.w3.org/1999/xlink" x="0px" y="0px"
	 viewBox="0 0 355.581 355.581" style="enable-background:new 0 0 355.581 355.581;" xml:space="preserve">
<g>
	<g>
		<g>
			<g>
				<g>
					<path d="M88.12,229.921c-1.979,0-3.909-0.8-5.31-2.199c-1.39-1.391-2.19-3.32-2.19-5.301c0-1.97,0.801-3.899,2.19-5.3
						c1.4-1.399,3.33-2.2,5.31-2.2c1.971,0,3.9,0.801,5.301,2.2c1.39,1.391,2.189,3.33,2.189,5.3c0,1.98-0.8,3.91-2.189,5.301
						C92.02,229.121,90.09,229.921,88.12,229.921z"/>
				</g>
				<g>
					<path d="M267.47,229.921c-1.979,0-3.91-0.8-5.31-2.199c-1.391-1.391-2.2-3.32-2.2-5.301c0-1.97,0.81-3.899,2.2-5.3
						c1.399-1.399,3.33-2.2,5.31-2.2c1.97,0,3.9,0.801,5.3,2.2c1.391,1.4,2.2,3.33,2.2,5.3c0,1.98-0.81,3.91-2.2,5.301
						C271.371,229.121,269.44,229.921,267.47,229.921z"/>
				</g>
			</g>
			<g>
				<path d="M150.521,114.956c-4.143,0-7.5-3.357-7.5-7.5c0-32.044,15.272-57.145,34.771-57.145c4.143,0,7.5,3.357,7.5,7.5
					s-3.357,7.5-7.5,7.5c-9.333,0-19.771,18.023-19.771,42.145C158.021,111.599,154.663,114.956,150.521,114.956z"/>
			</g>
			<g>
				<path d="M177.791,229.921c-1.971,0-3.91-0.8-5.301-2.199c-1.399-1.391-2.199-3.32-2.199-5.301c0-1.97,0.8-3.899,2.199-5.3
					c1.4-1.399,3.33-2.2,5.301-2.2c1.97,0,3.91,0.801,5.3,2.2c1.4,1.391,2.2,3.33,2.2,5.3c0,1.98-0.8,3.91-2.2,5.301
					C181.701,229.121,179.77,229.921,177.791,229.921z"/>
			</g>
			<g>
				<path d="M177.792,260.824c-24.342,0-48.983,8.938-48.983,26.02v61.237c0,4.143,3.357,7.5,7.5,7.5c4.142,0,7.5-3.357,7.5-7.5
					v-43.602h67.965v43.602c0,4.143,3.357,7.5,7.5,7.5c4.143,0,7.5-3.357,7.5-7.5v-61.237
					C226.773,269.762,202.132,260.824,177.792,260.824z M143.808,286.844c0-3.198,11.908-11.02,33.983-11.02
					c22.073,0,33.981,7.821,33.981,11.02v2.636h-67.965V286.844z"/>
			</g>
			<path d="M317.39,227.992v-11.138c0-14.816-12.054-26.87-26.87-26.87h-4.201v-26.178c0-0.003-0.001-0.007-0.001-0.007
				c0-0.006,0.001-0.008,0.001-0.008c-0.003-1.194-0.39-29.323-28.445-41.725c-5.78-2.556-23.369-10.33-23.325-15.435
				c0.004-0.419-1.924-29.821-9.191-43.059c4.841-4.878,7.673-11.536,7.673-18.585c0-13.387-10.023-24.478-22.958-26.161
				C203.56,7.246,191.372,0,177.791,0c-13.581,0-25.771,7.246-32.282,18.828c-12.936,1.684-22.957,12.774-22.957,26.161
				c0,7.048,2.834,13.707,7.672,18.587c-7.933,16.402-9.149,42.652-9.162,43.098c-0.151,5.104-17.574,12.838-23.354,15.394
				c-28.056,12.401-28.441,40.53-28.444,41.722v0.015v0.003v26.178h-4.201c-14.816,0-26.87,12.054-26.87,26.87v11.138
				c0,9.03,4.481,17.028,11.333,21.902c-2.651,3.493-5.085,7.993-6.133,13.493c-1.963,10.304,1.317,21.066,9.75,31.99
				c21.153,27.403,21.153,27.618,21.153,38.875v13.828c0,4.143,3.357,7.5,7.5,7.5h17.242c4.142,0,7.5-3.357,7.5-7.5v-28.98
				c0.003-0.673-0.067-16.661-12.237-32.608c-4.955-6.494-6.372-12.482-4.331-18.308c2.555-7.291,9.638-12.14,12.793-13.322h150.058
				c3.155,1.183,10.24,6.031,12.795,13.323c2.041,5.824,0.624,11.813-4.332,18.307c-12.17,15.947-12.24,31.936-12.237,32.575v29.014
				c0,4.143,3.357,7.5,7.5,7.5h17.242c4.143,0,7.5-3.357,7.5-7.5v-13.828c0-11.258,0-11.473,21.152-38.875
				c8.434-10.924,11.714-21.686,9.751-31.99c-1.048-5.501-3.482-10-6.134-13.492C312.908,245.02,317.39,237.022,317.39,227.992z
				 M240.621,189.984v-18.678h30.698v18.678H240.621z M251.809,135.786c11.544,5.104,16.258,14.091,18.183,20.52h-11.869
				c-0.868-5.771-3.286-13.83-9.635-22.007C249.584,134.798,250.693,135.293,251.809,135.786z M149.745,33.655
				c3.276,0.24,6.314-1.668,7.523-4.713C160.628,20.473,168.684,15,177.791,15c9.105,0,17.161,5.473,20.522,13.942
				c1.208,3.044,4.251,4.956,7.519,4.713c0,0,11.709-0.375,12.198,11.334c0.065,1.561-0.325,3.077-0.922,4.47
				c-10.545-14.366-24.41-22.249-39.316-22.249c-14.907,0-28.774,7.884-39.318,22.25c-0.597-1.392-0.967-2.91-0.922-4.471
				C137.887,33.369,149.744,33.655,149.745,33.655z M149.224,60.218c7.852-11.612,17.997-18.008,28.567-18.008
				c10.569,0,20.715,6.396,28.565,18.008c8.46,12.513,13.119,29.288,13.119,47.238c0,17.949-4.659,34.726-13.119,47.238
				c-7.852,11.612-17.996,18.008-28.565,18.008c-10.57,0-20.716-6.396-28.567-18.008c-8.46-12.513-13.119-29.289-13.119-47.238
				C136.105,89.506,140.764,72.73,149.224,60.218z M103.77,135.786c1.117-0.493,2.227-0.988,3.324-1.486
				c-6.352,8.178-8.768,16.234-9.637,22.007H85.592C87.519,149.867,92.234,140.886,103.77,135.786z M84.262,171.307h30.699v18.678
				H84.262V171.307z M91.537,319.067v21.514h-2.242v-6.328c0-16.588-2.298-19.564-24.279-48.041
				c-5.655-7.326-7.981-14.019-6.912-19.892c1.037-5.699,5.11-9.665,7.336-11.458h14.702c-1.758,2.516-3.259,5.308-4.329,8.362
				c-2.603,7.431-3.579,19.078,6.563,32.367C91.315,307.307,91.536,318.971,91.537,319.067z M123.274,239.862H65.061
				c-6.546,0-11.87-5.325-11.87-11.87v-11.138c0-6.545,5.324-11.87,11.87-11.87h58.213V239.862z M122.461,156.307h-9.761
				c1.192-5.042,4.321-12.234,12.374-19.112c2.659,9.544,6.608,18.336,11.723,25.901c10.729,15.868,25.287,24.606,40.994,24.606
				c15.706,0,30.264-8.738,40.992-24.606c5.115-7.565,9.063-16.358,11.724-25.903c8.064,6.887,11.198,14.089,12.387,19.114h-9.773
				c-4.143,0-7.5,3.357-7.5,7.5v26.178h-95.659v-26.178C129.961,159.664,126.604,156.307,122.461,156.307z M217.307,239.862h-79.033
				v-34.878h79.033V239.862z M290.566,286.212c-21.982,28.476-24.279,31.452-24.279,48.041v6.328h-2.242v-21.493
				c0.001-0.117,0.222-11.781,9.161-23.496c10.143-13.289,9.168-24.936,6.565-32.366c-1.071-3.056-2.574-5.848-4.333-8.363h14.727
				c2.189,1.752,6.207,5.646,7.291,11.332C298.58,272.099,296.262,278.833,290.566,286.212z M302.39,227.992
				c0,6.545-5.325,11.87-11.87,11.87h-58.213v-34.878h58.213c6.545,0,11.87,5.325,11.87,11.87V227.992z"/>
		</g>
	</g>
</g>
<g>
</g>
<g>
</g>
<g>
</g>
<g>
</g>
<g>
</g>
<g>
</g>
<g>
</g>
<g>
</g>
<g>
</g>
<g>
</g>
<g>
</g>
<g>
</g>
<g>
</g>
<g>
</g>
<g>
</g>
</svg>
