<?xml version="1.0" encoding="iso-8859-1"?>
<!-- Generator: Adobe Illustrator 18.0.0, SVG Export Plug-In . SVG Version: 6.00 Build 0)  -->
<!DOCTYPE svg PUBLIC "-//W3C//DTD SVG 1.1//EN" "http://www.w3.org/Graphics/SVG/1.1/DTD/svg11.dtd">
<svg version="1.1" id="Capa_1" xmlns="http://www.w3.org/2000/svg" xmlns:xlink="http://www.w3.org/1999/xlink" x="0px" y="0px"
	 viewBox="0 0 368.127 368.127" style="enable-background:new 0 0 368.127 368.127;" xml:space="preserve">
<g>
	<g>
		<path d="M237.267,149.201c-0.045-0.057-4.478-5.68-6.172-13.793c-2.145-10.271,1.015-19.986,9.388-28.877
			c5.316-5.643,8.127-12.57,8.127-20.031c0-15.475-13.124-28.668-32.902-35.531V23.234C215.707,10.424,205.284,0,192.474,0h-16.82
			c-12.811,0-23.233,10.424-23.233,23.234v27.732c-19.779,6.863-32.903,20.057-32.903,35.533c0,7.461,2.811,14.389,8.127,20.031
			c8.374,8.891,11.532,18.605,9.388,28.877c-1.693,8.113-6.127,13.736-6.145,13.76c-0.022,0.027-0.044,0.053-0.064,0.08
			c-19.753,24.865-31.081,61.943-31.081,101.729c0,48.543,17.013,92.773,44.399,115.43c1.345,1.111,3.035,1.721,4.78,1.721h70.285
			c1.745,0,3.436-0.609,4.781-1.723c27.386-22.656,44.398-66.887,44.398-115.428C268.386,211.189,257.057,174.111,237.267,149.201z
			 M167.42,23.234c0-4.539,3.693-8.234,8.233-8.234h16.82c4.54,0,8.233,3.695,8.233,8.234v23.986
			c-5.286-0.855-10.853-1.314-16.62-1.318c-0.039,0-0.079,0-0.119,0.002c-5.742,0.006-11.283,0.465-16.548,1.316V23.234z
			 M216.428,353.127h-64.729c-22.855-20.398-36.958-59.201-36.958-102.15c0-36.439,10.131-70.102,27.797-92.361
			c8.805-10.814,19.262-37.699-3.977-62.369c-2.646-2.809-4.045-6.18-4.045-9.746c0-25.941,49.511-25.596,49.547-25.596
			c0.007,0,49.546-0.488,49.546,25.596c0,3.566-1.398,6.938-4.045,9.746c-23.235,24.668-12.781,51.551-3.978,62.367
			c17.668,22.26,27.799,55.92,27.799,92.363C253.386,293.924,239.283,332.729,216.428,353.127z"/>
		<g>
			<path d="M184.064,326.6c-25.349,0-50.927-19.457-50.927-62.926c0-37.779,20.312-94.895,50.927-94.895
				s50.927,57.115,50.927,94.895C234.99,307.143,209.412,326.6,184.064,326.6z M184.064,183.779
				c-16.452,0-35.927,43.307-35.927,79.895c0,29.113,14.103,47.926,35.927,47.926s35.927-18.813,35.927-47.926
				C219.99,227.086,200.516,183.779,184.064,183.779z"/>
		</g>
	</g>
</g>
<g>
</g>
<g>
</g>
<g>
</g>
<g>
</g>
<g>
</g>
<g>
</g>
<g>
</g>
<g>
</g>
<g>
</g>
<g>
</g>
<g>
</g>
<g>
</g>
<g>
</g>
<g>
</g>
<g>
</g>
</svg>
