<?xml version="1.0" encoding="iso-8859-1"?>
<!-- Generator: Adobe Illustrator 18.0.0, SVG Export Plug-In . SVG Version: 6.00 Build 0)  -->
<!DOCTYPE svg PUBLIC "-//W3C//DTD SVG 1.1//EN" "http://www.w3.org/Graphics/SVG/1.1/DTD/svg11.dtd">
<svg version="1.1" id="Capa_1" xmlns="http://www.w3.org/2000/svg" xmlns:xlink="http://www.w3.org/1999/xlink" x="0px" y="0px"
	 viewBox="0 0 372.365 372.365" style="enable-background:new 0 0 372.365 372.365;" xml:space="preserve">
<g>
	<path d="M238.529,39.524c7.5,0,7.5-8.188,7.5-8.188c0-16.4-16.823-31.335-35.295-31.335h-49.103
		c-18.472,0-35.295,14.936-35.295,31.335v312.221c0,15.885,12.924,28.809,28.81,28.809c15.886,0,28.81-12.923,28.81-28.809V230.813
		h26.778c18.472,0,35.295-14.936,35.295-31.335c0,0,0-8.188-7.5-8.188h-54.573v-7.235h54.573c4.143,0,7.5-3.358,7.5-7.5
		c0-4.142-3.357-7.5-7.5-7.5h-54.573v-9.458h54.573c4.143,0,7.5-3.358,7.5-7.5c0-4.142-3.357-7.5-7.5-7.5h-54.573v-9.459h54.573
		c4.143,0,7.5-3.358,7.5-7.5c0-4.142-3.357-7.5-7.5-7.5h-54.573v-9.461h54.573c4.143,0,7.5-3.358,7.5-7.5s-3.357-7.5-7.5-7.5
		h-54.573v-9.459h54.573c4.143,0,7.5-3.358,7.5-7.5c0-4.142-3.357-7.5-7.5-7.5h-54.573v-9.459h54.573c4.143,0,7.5-3.358,7.5-7.5
		c0-4.142-3.357-7.5-7.5-7.5h-54.573v-7.235H238.529z M228.683,206.29c-3.451,5.145-10.318,9.523-17.949,9.523h-34.278
		c-4.143,0-7.5,3.358-7.5,7.5v120.243c0,7.614-6.195,13.809-13.81,13.809c-7.614,0-13.81-6.194-13.81-13.809V31.335
		c0-7.353,9.365-16.335,20.295-16.335h49.103c7.631,0,14.499,4.378,17.95,9.524h-52.229c-4.143,0-7.5,3.358-7.5,7.5V198.79
		c0,4.142,3.357,7.5,7.5,7.5H228.683z"/>
</g>
<g>
</g>
<g>
</g>
<g>
</g>
<g>
</g>
<g>
</g>
<g>
</g>
<g>
</g>
<g>
</g>
<g>
</g>
<g>
</g>
<g>
</g>
<g>
</g>
<g>
</g>
<g>
</g>
<g>
</g>
</svg>
