<?xml version="1.0" encoding="iso-8859-1"?>
<!-- Generator: Adobe Illustrator 18.0.0, SVG Export Plug-In . SVG Version: 6.00 Build 0)  -->
<!DOCTYPE svg PUBLIC "-//W3C//DTD SVG 1.1//EN" "http://www.w3.org/Graphics/SVG/1.1/DTD/svg11.dtd">
<svg version="1.1" id="Capa_1" xmlns="http://www.w3.org/2000/svg" xmlns:xlink="http://www.w3.org/1999/xlink" x="0px" y="0px"
	 viewBox="0 0 378.977 378.977" style="enable-background:new 0 0 378.977 378.977;" xml:space="preserve">
<g>
	<g>
		<path d="M372.599,91.402c-1.467-3.533-5.357-5.397-9.031-4.321c-38.205,11.176-85.178,18.282-136.26,20.663v-2.205
			c0-2.68-1.43-5.155-3.75-6.495c-2.32-1.34-5.18-1.34-7.5,0l-16.492,9.521c-6.686,0.082-13.469,0.082-20.156,0l-16.492-9.521
			c-2.32-1.34-5.18-1.34-7.5,0c-2.32,1.34-3.75,3.815-3.75,6.495v2.205c-51.082-2.381-98.057-9.488-136.26-20.663
			c-3.668-1.073-7.563,0.788-9.031,4.321c-12.641,30.427-3.043,58.456-0.361,65.172c-0.098,12.987,9.783,23.99,22.936,25.445
			c8.035,0.889,12.469-1.469,16.531-4.188c3.252,4.612,7.969,8.028,13.539,9.73c2.451,0.749,4.957,1.12,7.449,1.12
			c3.186,0,6.348-0.614,9.346-1.813c2.184,5.32,6.188,9.517,11.18,12.533c6.973,4.213,14.693,3.09,15.912,2.912
			c0.826,5.451,3.391,10.459,7.414,14.363c3.785,3.672,8.506,6.02,13.607,6.838c-0.672,5.045,0.188,10.169,2.545,14.802
			c3.074,6.046,8.32,10.532,14.77,12.631c2.588,0.842,5.244,1.26,7.887,1.26c0.955,0,1.908-0.06,2.857-0.169
			c1.063,5.234,1.613,10.594,1.613,16.048c0,0.096,0.002,0.191,0.006,0.287c0.318,8.322,8.027,23.822,34.766,23.822
			c0.367,0,1.861,0.008,2.23,0c36.73-0.767,34.771-24.013,34.771-24.108c0-5.455,0.553-10.814,1.615-16.048
			c0.947,0.109,1.9,0.169,2.855,0.169c2.645,0,5.301-0.418,7.887-1.26c6.451-2.1,11.695-6.585,14.77-12.63
			c2.357-4.634,3.217-9.759,2.547-14.804c5.1-0.818,9.822-3.166,13.605-6.837c4.029-3.909,6.594-8.925,7.418-14.383
			c1.211,0.176,2.434,0.274,3.664,0.274c4.152,0,8.361-1.02,12.244-3.167c5.103-2.823,8.996-7.213,11.18-12.534
			c3,1.199,6.16,1.813,9.348,1.813c2.49,0,4.996-0.371,7.447-1.12c5.564-1.7,10.277-5.11,13.529-9.714
			c4.06,2.719,10.113,4.73,16.541,4.171c13.182-1.146,23.033-12.456,22.936-25.442C375.642,149.864,385.242,121.832,372.599,91.402z
			 M205.261,122.599c0.023-0.013,0.045-0.027,0.068-0.04l6.979-4.029v9.029l-7.82-4.515L205.261,122.599z M166.668,118.53
			l6.982,4.03c0.021,0.013,0.043,0.025,0.064,0.038l0.773,0.446l-7.82,4.515V118.53z M30.398,167.089
			c-3.141-0.305-5.816-1.985-7.498-4.385c5.336,0.269,10.59,0.759,15.746,1.467C36.531,166.233,33.564,167.395,30.398,167.089z
			 M63.404,173.216c-5.98-2.073-6.465-5.365-6.561-5.57c5.16,1.269,10.189,2.756,15.068,4.451
			C71.716,172.218,68.58,175.01,63.404,173.216z M94.256,186.275c-5.873-2.972-5.102-6.789-5.158-7.075
			c4.842,2.349,9.479,4.918,13.889,7.685C102.715,186.988,99.584,188.971,94.256,186.275z M120.767,205.91
			c-4.496-4.15-3.145-8.024-3.113-8.382c4.217,3.535,8.125,7.283,11.688,11.223C128.951,208.801,125.257,210.056,120.767,205.91z
			 M139.845,231.516c-2.32-4.855-0.295-8.791-0.098-9.204c3.027,4.727,5.598,9.651,7.676,14.735
			C146.908,236.962,142.216,236.479,139.845,231.516z M239.131,231.518c-2.068,4.436-7.063,5.444-7.578,5.53
			c2.078-5.084,4.648-10.008,7.676-14.735C239.425,222.725,241.195,227.09,239.131,231.518z M258.209,205.911
			c-5.105,4.165-8.184,2.89-8.574,2.84c3.563-3.94,7.471-7.689,11.688-11.223C261.355,197.885,261.877,202.918,258.209,205.911z
			 M284.72,186.275c-2.76,1.57-5.965,1.656-8.725,0.607c4.408-2.766,9.043-5.334,13.883-7.682
			C289.822,179.487,289.55,183.528,284.72,186.275z M315.574,173.216c-4.676,1.348-8.314-0.998-8.51-1.119
			c4.879-1.694,9.908-3.182,15.068-4.451C322.037,167.851,320.523,171.79,315.574,173.216z M348.58,167.089
			c-3.172,0.308-6.145-0.852-8.26-2.916c5.158-0.709,10.418-1.199,15.754-1.468C354.39,165.103,351.716,166.785,348.58,167.089z
			 M360.254,147.527c-39.111,1.005-75.762,13.206-103.699,34.614c-29.668,22.733-46.057,53.116-46.178,85.584
			c-0.709,10.078-20.844,9.466-20.887,9.466c-0.045,0-19.697,0.987-20.889-9.467c-0.121-32.468-16.51-62.85-46.18-85.583
			c-27.941-21.412-64.604-33.614-103.721-34.614c-2.502-7.767-6.502-25.059-0.711-44.127
			c38.205,10.448,84.121,17.092,133.678,19.361v17.789c0,2.68,1.498,5.044,3.75,6.495c3.211,2.069,6.34,0.67,7.5,0l26.57-15.34
			l26.57,15.34c1.16,0.67,4.83,1.734,7.5,0c2.248-1.459,3.75-3.815,3.75-6.495v-17.789c49.555-2.269,95.469-8.912,133.674-19.36
			C366.715,122.363,362.732,139.732,360.254,147.527z"/>
	</g>
</g>
<g>
</g>
<g>
</g>
<g>
</g>
<g>
</g>
<g>
</g>
<g>
</g>
<g>
</g>
<g>
</g>
<g>
</g>
<g>
</g>
<g>
</g>
<g>
</g>
<g>
</g>
<g>
</g>
<g>
</g>
</svg>
