<?xml version="1.0" encoding="iso-8859-1"?>
<!-- Generator: Adobe Illustrator 18.0.0, SVG Export Plug-In . SVG Version: 6.00 Build 0)  -->
<!DOCTYPE svg PUBLIC "-//W3C//DTD SVG 1.1//EN" "http://www.w3.org/Graphics/SVG/1.1/DTD/svg11.dtd">
<svg version="1.1" id="Capa_1" xmlns="http://www.w3.org/2000/svg" xmlns:xlink="http://www.w3.org/1999/xlink" x="0px" y="0px"
	 viewBox="0 0 310.895 310.895" style="enable-background:new 0 0 310.895 310.895;" xml:space="preserve">
<g>
	<path d="M299.507,120.087c-2.346-1.703-4.967-3.046-7.786-3.943c-2.158-23.344-16.457-44.908-40.829-61.262
		c-25.6-17.179-59.496-26.64-95.444-26.64s-69.845,9.461-95.444,26.64C35.631,71.235,21.332,92.8,19.175,116.144
		c-2.82,0.898-5.442,2.241-7.788,3.944C11.096,120.275,0,127.964,0,142.352v43.338c0,6.814,2.497,13.054,6.617,17.862v51.601
		c0,15.163,12.337,27.5,27.5,27.5h242.66c15.164,0,27.5-12.337,27.5-27.5v-51.601c4.12-4.809,6.617-11.048,6.617-17.862v-43.338
		C310.895,128.315,299.8,120.275,299.507,120.087z M63.236,163.572l23.665-23.666l23.666,23.666l-23.666,23.666L63.236,163.572z
		 M76.759,198.203H28.62l24.009-24.023L76.759,198.203z M155.447,139.906l23.666,23.666l-23.666,23.666l-23.666-23.666
		L155.447,139.906z M121.175,152.966l-23.114-23.114h46.228L121.175,152.966z M166.606,129.852h46.227l-23.113,23.114
		L166.606,129.852z M61.36,114.852c2.793-10.778,11.568-20.922,25.4-29.14c18.228-10.831,42.621-16.796,68.687-16.796
		c26.065,0,50.459,5.965,68.687,16.796c13.831,8.219,22.606,18.361,25.4,29.14H61.36z M121.175,174.179l24.082,24.024H97.129
		L121.175,174.179z M169.155,213.189c-0.316,6.613-5.779,11.9-12.47,11.9h-2.476c-6.689,0-12.153-5.287-12.47-11.9H169.155z
		 M165.73,198.203l23.989-24.024l24.087,24.024H165.73z M200.327,163.572l23.665-23.666l23.666,23.666l-23.666,23.666
		L200.327,163.572z M258.266,174.18l24.01,24.023h-48.021L258.266,174.18z M235.151,129.852h46.228l-23.114,23.114L235.151,129.852z
		 M68.36,67.337c23.155-15.537,54.083-24.095,87.087-24.095c33.003,0,63.932,8.558,87.087,24.095
		c19.513,13.094,31.33,29.743,33.933,47.515h-11.599c-2.725-16.119-14.224-30.836-33.071-42.035
		c-20.513-12.189-47.627-18.9-76.35-18.9c-28.722,0-55.837,6.712-76.349,18.9c-18.848,11.199-30.347,25.916-33.071,42.035H34.429
		C37.031,97.08,48.849,80.431,68.36,67.337z M75.743,129.852l-23.114,23.114l-23.113-23.114H75.743z M15,185.689v-43.338
		c0-1.711,0.348-3.343,0.973-4.829l26.05,26.05l-26.29,26.291C15.267,188.556,15,187.155,15,185.689z M276.777,267.652H34.117
		c-6.893,0-12.5-5.607-12.5-12.5v-41.963h105.108c0.321,14.887,12.522,26.9,27.484,26.9h2.476c14.962,0,27.163-12.014,27.484-26.9
		h105.107v41.963C289.277,262.045,283.67,267.652,276.777,267.652z M295.895,185.689c0,1.466-0.267,2.866-0.732,4.174
		l-26.291-26.291l26.051-26.05c0.625,1.486,0.972,3.118,0.972,4.829V185.689z"/>
</g>
<g>
</g>
<g>
</g>
<g>
</g>
<g>
</g>
<g>
</g>
<g>
</g>
<g>
</g>
<g>
</g>
<g>
</g>
<g>
</g>
<g>
</g>
<g>
</g>
<g>
</g>
<g>
</g>
<g>
</g>
</svg>
