<?xml version="1.0" encoding="iso-8859-1"?>
<!-- Generator: Adobe Illustrator 18.0.0, SVG Export Plug-In . SVG Version: 6.00 Build 0)  -->
<!DOCTYPE svg PUBLIC "-//W3C//DTD SVG 1.1//EN" "http://www.w3.org/Graphics/SVG/1.1/DTD/svg11.dtd">
<svg version="1.1" id="Capa_1" xmlns="http://www.w3.org/2000/svg" xmlns:xlink="http://www.w3.org/1999/xlink" x="0px" y="0px"
	 viewBox="0 0 324.426 324.426" style="enable-background:new 0 0 324.426 324.426;" xml:space="preserve">
<g>
	<g>
		<path d="M222.205,56.308c-0.045-0.563-1.192-13.939-7.858-27.424C205.008,9.988,189.633,0,169.884,0h-15.342
			c-19.749,0-35.124,9.988-44.463,28.883c-6.666,13.485-7.813,26.861-7.858,27.424c-0.016,0.201-0.875,63.206,0,67.11
			c2.242,10.011,8.456,17.298,12.909,22.046c-12.759,13.526-12.934,37.146-12.934,38.329v114.155
			c0,14.6,11.878,26.478,26.479,26.478h67.074c14.601,0,26.479-11.878,26.479-26.478V183.793c0-1.183-0.174-24.803-12.933-38.329
			c4.452-4.749,10.667-12.035,12.909-22.046C223.079,119.514,222.221,56.509,222.205,56.308z M123.526,35.529
			C130.259,21.907,140.695,15,154.542,15h15.342c32.341,0,36.96,38.354,37.345,42.254v42.712h-90.032V57.263
			C117.373,55.552,118.578,45.541,123.526,35.529z M207.229,297.948c0,6.329-5.149,11.478-11.479,11.478h-67.074
			c-6.33,0-11.479-5.149-11.479-11.478V183.807c0.026-6.959,2.423-26.125,13.061-31.174c2.494-1.183,4.16-3.626,4.299-6.382
			c0.14-2.756-1.222-5.352-3.583-6.781c-0.411-0.257-13.487-5.984-13.487-24.503h89.452c0,18.739-13.076,24.246-13.439,24.474
			c-2.361,1.429-3.747,4.039-3.607,6.795c0.139,2.756,1.781,5.214,4.275,6.397c10.638,5.048,13.036,24.215,13.061,31.16V297.948z"/>
		<path d="M170.164,181.696h-15.902c-13.083,0-23.726,10.644-23.726,23.726v49.109c0,13.083,10.644,23.726,23.726,23.726h15.902
			c13.083,0,23.726-10.643,23.726-23.726v-49.109C193.89,192.339,183.247,181.696,170.164,181.696z M178.89,254.531
			c0,4.811-3.915,8.726-8.726,8.726h-15.902c-4.812,0-8.726-3.915-8.726-8.726v-49.109c0-4.812,3.915-8.726,8.726-8.726h15.902
			c4.811,0,8.726,3.915,8.726,8.726V254.531z"/>
	</g>
</g>
<g>
</g>
<g>
</g>
<g>
</g>
<g>
</g>
<g>
</g>
<g>
</g>
<g>
</g>
<g>
</g>
<g>
</g>
<g>
</g>
<g>
</g>
<g>
</g>
<g>
</g>
<g>
</g>
<g>
</g>
</svg>
