<?xml version="1.0" encoding="iso-8859-1"?>
<!-- Generator: Adobe Illustrator 18.0.0, SVG Export Plug-In . SVG Version: 6.00 Build 0)  -->
<!DOCTYPE svg PUBLIC "-//W3C//DTD SVG 1.1//EN" "http://www.w3.org/Graphics/SVG/1.1/DTD/svg11.dtd">
<svg version="1.1" id="Capa_1" xmlns="http://www.w3.org/2000/svg" xmlns:xlink="http://www.w3.org/1999/xlink" x="0px" y="0px"
	 viewBox="0 0 325.624 325.624" style="enable-background:new 0 0 325.624 325.624;" xml:space="preserve">
<g>
	<path d="M324.521,134.337c-1.684-2.75-4.937-4.117-8.079-3.393c-2.881,0.663-5.541,0.985-8.13,0.985
		c-10.712,0-19.026-5.938-29.553-13.454c-11.279-8.054-25.317-18.077-46.622-23.421c-10.281-2.579-20.709-3.887-30.992-3.887
		c-18.695,0-32.376,4.304-38.332,6.594c-5.957-2.29-19.638-6.594-38.333-6.594c-10.284,0-20.712,1.308-30.993,3.887
		c-21.304,5.343-35.342,15.366-46.622,23.42c-10.528,7.517-18.843,13.454-29.555,13.455c-0.002,0-0.002,0-0.004,0
		c-2.586,0-5.244-0.322-8.126-0.985c-3.145-0.723-6.395,0.644-8.08,3.394c-1.683,2.751-1.419,6.27,0.655,8.739
		c1.283,1.527,10.336,11.225,37.426,17.12c2.12,21.462,15.223,40.33,37.443,53.623c22.243,13.308,52.851,20.636,86.187,20.636
		c33.334,0,63.942-7.328,86.186-20.636c22.22-13.293,35.322-32.16,37.442-53.622c27.096-5.896,36.145-15.596,37.428-17.123
		C325.941,140.606,326.204,137.087,324.521,134.337z M241.298,200.948c-19.949,11.935-47.822,18.508-78.484,18.508
		c-30.663,0-58.537-6.573-78.486-18.508c-12.08-7.227-26.173-19.438-29.646-38.127c9.459,1.198,20.485,1.934,33.323,1.934
		c22.002,0,47.165-2.183,74.809-6.487c27.644,4.305,52.807,6.487,74.808,6.487c12.837,0,23.863-0.735,33.322-1.934
		C267.47,181.511,253.378,193.721,241.298,200.948z M237.621,149.755c-21.532,0-46.308-2.183-73.641-6.487
		c-0.387-0.061-1.947-0.061-2.334,0c-27.333,4.305-52.11,6.487-73.642,6.487c-24.821,0-41.998-2.899-53.575-6.266
		c7.531-3.08,14.228-7.862,21.153-12.807c10.784-7.7,23.006-16.427,41.555-21.079c9.089-2.28,18.289-3.435,27.343-3.435
		c21.253,0,34.94,6.415,35.051,6.468c2.071,1.008,4.492,1.009,6.564-0.001c0.133-0.064,13.535-6.467,35.049-6.467
		c9.054,0,18.253,1.155,27.342,3.435c18.55,4.653,30.772,13.38,41.555,21.079c6.925,4.945,13.623,9.729,21.154,12.809
		C279.62,146.856,262.445,149.755,237.621,149.755z"/>
</g>
<g>
</g>
<g>
</g>
<g>
</g>
<g>
</g>
<g>
</g>
<g>
</g>
<g>
</g>
<g>
</g>
<g>
</g>
<g>
</g>
<g>
</g>
<g>
</g>
<g>
</g>
<g>
</g>
<g>
</g>
</svg>
