<?xml version="1.0" encoding="iso-8859-1"?>
<!-- Generator: Adobe Illustrator 18.0.0, SVG Export Plug-In . SVG Version: 6.00 Build 0)  -->
<!DOCTYPE svg PUBLIC "-//W3C//DTD SVG 1.1//EN" "http://www.w3.org/Graphics/SVG/1.1/DTD/svg11.dtd">
<svg version="1.1" id="Capa_1" xmlns="http://www.w3.org/2000/svg" xmlns:xlink="http://www.w3.org/1999/xlink" x="0px" y="0px"
	 viewBox="0 0 345.857 345.857" style="enable-background:new 0 0 345.857 345.857;" xml:space="preserve">
<g>
	<g>
		<g>
			<path d="M238.658,40.385H107.2c-4.142,0-7.5-3.358-7.5-7.5c0-4.142,3.358-7.5,7.5-7.5h131.457c4.143,0,7.5,3.358,7.5,7.5
				C246.158,37.027,242.8,40.385,238.658,40.385z"/>
		</g>
		<path d="M248.255,0H97.602c-15.163,0-27.5,12.336-27.5,27.5v10.769c0,15.164,12.337,27.5,27.5,27.5h5.463
			c2.038,12.084,9.264,23.151,20.891,31.699c6.957,5.115,15.099,9.003,23.938,11.545c0.674,19.637,2.557,92.676-4.599,140.445
			c-6.556,43.76-3.741,73.008,8.366,86.933c5.388,6.197,12.656,9.465,21.038,9.465c0.076,0,0.153-0.001,0.23-0.001
			c0.077,0,0.154,0.001,0.231,0.001c8.38,0,15.65-3.269,21.037-9.465c12.107-13.925,14.922-43.174,8.365-86.933
			c-7.154-47.77-5.271-120.809-4.598-140.446c8.84-2.543,16.98-6.43,23.939-11.545c11.625-8.548,18.852-19.615,20.885-31.699h5.467
			c15.164,0,27.5-12.336,27.5-27.5V27.5C275.755,12.336,263.419,0,248.255,0z M187.728,251.681
			c7.705,51.426,0.268,68.981-4.85,74.869c-2.588,2.977-5.73,4.367-9.879,4.306c-0.011,0-0.02,0.001-0.031,0.001
			c-0.013,0-0.024-0.002-0.037-0.002c-0.023,0-0.047,0-0.07,0c-4.137,0.024-7.291-1.33-9.88-4.307
			c-5.118-5.887-12.555-23.442-4.852-74.869c7.062-47.138,5.655-115.685,4.881-139.723c3.26,0.347,6.572,0.528,9.919,0.528
			c3.348,0,6.659-0.181,9.92-0.528C182.074,136.006,180.669,204.549,187.728,251.681z M172.929,97.487
			c-27.131,0-49.759-13.695-54.534-31.718h109.054C222.675,83.791,200.058,97.487,172.929,97.487z M260.755,38.269
			c0,6.893-5.607,12.5-12.5,12.5H97.602c-6.893,0-12.5-5.607-12.5-12.5V27.5c0-6.892,5.607-12.5,12.5-12.5h150.654
			c6.893,0,12.5,5.608,12.5,12.5V38.269z"/>
	</g>
</g>
<g>
</g>
<g>
</g>
<g>
</g>
<g>
</g>
<g>
</g>
<g>
</g>
<g>
</g>
<g>
</g>
<g>
</g>
<g>
</g>
<g>
</g>
<g>
</g>
<g>
</g>
<g>
</g>
<g>
</g>
</svg>
